<svg width="25" height="25" viewBox="0 0 25 25" fill="none" xmlns="http://www.w3.org/2000/svg">
<path d="M22.357 8.9852L19.357 3.9852C19.2684 3.83709 19.1428 3.71453 18.9926 3.62951C18.8423 3.5445 18.6726 3.49994 18.5 3.5002H13.914L13.207 2.7932C13.1142 2.70026 13.004 2.62652 12.8827 2.57621C12.7614 2.5259 12.6313 2.5 12.5 2.5C12.3687 2.5 12.2386 2.5259 12.1173 2.57621C11.996 2.62652 11.8858 2.70026 11.793 2.7932L11.086 3.5002H6.5C6.32739 3.49994 6.15767 3.5445 6.00744 3.62951C5.85722 3.71453 5.73164 3.83709 5.643 3.9852L2.643 8.9852C2.55024 9.14093 2.5015 9.31893 2.502 9.5002H2.5V19.5002C2.5 19.7654 2.60536 20.0198 2.79289 20.2073C2.98043 20.3948 3.23478 20.5002 3.5 20.5002H21.5C21.7652 20.5002 22.0196 20.3948 22.2071 20.2073C22.3946 20.0198 22.5 19.7654 22.5 19.5002V9.5002H22.498C22.498 9.3222 22.452 9.1442 22.357 8.9852ZM20.5 18.5002H14.5V14.5002H10.5V18.5002H4.5V10.5002H6.914L7.207 10.2072L9.207 8.2072L12.5 4.9142L16.793 9.2072L17.793 10.2072L18.086 10.5002H20.5V18.5002Z" fill="#1E88E5"/>
<path d="M12.395 12.5C13.5576 12.5 14.5 11.5576 14.5 10.395C14.5 9.23248 13.5576 8.29004 12.395 8.29004C11.2325 8.29004 10.29 9.23248 10.29 10.395C10.29 11.5576 11.2325 12.5 12.395 12.5Z" fill="#7D858F"/>
<path d="M6.5 12.5H8.5V15.5H6.5V12.5ZM16.5 12.5H18.5V15.5H16.5V12.5Z" fill="#7D858F"/>
</svg>
