<svg width="24" height="25" viewBox="0 0 24 25" fill="none" xmlns="http://www.w3.org/2000/svg">
<path d="M12 16.9028C14.2091 16.9028 16 15.112 16 12.9028C16 10.6937 14.2091 8.90283 12 8.90283C9.79086 8.90283 8 10.6937 8 12.9028C8 15.112 9.79086 16.9028 12 16.9028Z" fill="#7D858F"/>
<path d="M13 4.97183V2.90283H11V4.97183C9.2403 5.19651 7.60497 5.999 6.35057 7.2534C5.09617 8.5078 4.29368 10.1431 4.069 11.9028H2V13.9028H4.069C4.29335 15.6627 5.09574 17.2982 6.3502 18.5526C7.60466 19.8071 9.24017 20.6095 11 20.8338V22.9028H13V20.8338C14.7599 20.6096 16.3955 19.8073 17.65 18.5528C18.9045 17.2983 19.7068 15.6627 19.931 13.9028H22V11.9028H19.931C19.7066 10.143 18.9043 8.50749 17.6498 7.25303C16.3953 5.99857 14.7598 5.19618 13 4.97183ZM12 18.9028C8.691 18.9028 6 16.2118 6 12.9028C6 9.59383 8.691 6.90283 12 6.90283C15.309 6.90283 18 9.59383 18 12.9028C18 16.2118 15.309 18.9028 12 18.9028Z" fill="#7D858F"/>
</svg>
