<svg width="30" height="30" viewBox="0 0 30 30" fill="none" xmlns="http://www.w3.org/2000/svg">
<path d="M1.19 9.08C1.14 9.2 1.09001 9.31 1.04001 9.44L29.3 10.92C29.27 10.79 29.23 10.67 29.19 10.55L1.19 9.08ZM0.779999 10.17C0.739999 10.29 0.700004 10.41 0.660004 10.53L29.57 12.05C29.55 11.92 29.52 11.8 29.49 11.68L0.779999 10.17ZM0.229996 12.36C0.209996 12.48 0.189998 12.6 0.169998 12.72L29.84 14.27C29.84 14.15 29.83 14.03 29.82 13.91L0.229996 12.36ZM1.71001 8C1.65001 8.12 1.59 8.24 1.53 8.35L28.95 9.79C28.9 9.67 28.85 9.54 28.81 9.42L1.71001 8ZM0.0800018 13.47C0.0700018 13.59 0.060003 13.71 0.0500031 13.84L29.84 15.4C29.84 15.28 29.85 15.16 29.85 15.03L0.0800018 13.47ZM0.460007 11.27C0.430007 11.39 0.40001 11.51 0.37001 11.63L29.74 13.17C29.72 13.05 29.71 12.93 29.69 12.8L0.460007 11.27ZM2.33 6.92C2.26 7.04 2.19 7.15 2.11 7.27L28.46 8.65C28.4 8.52 28.34 8.4 28.28 8.27L2.33 6.92ZM10.48 0.679999C10.17 0.779999 9.87001 0.880001 9.57001 1L21.72 1.63C21.43 1.49 21.14 1.35 20.85 1.22L10.48 0.679999ZM13.37 0.080001L18.03 0.320001C17.28 0.160001 16.5 0.0599996 15.71 0.0199996C14.91 -0.0200004 14.13 1.02073e-06 13.37 0.080001ZM8.08 1.66C7.87 1.77 7.67 1.88 7.47 1.99L23.69 2.84C23.5 2.7 23.31 2.57 23.12 2.45L8.08 1.66ZM5.06 3.73C4.93 3.84 4.80001 3.96 4.68001 4.08L26.24 5.21C26.13 5.08 26.02 4.95 25.9 4.83L5.06 3.73ZM6.39 2.68C6.23 2.79 6.08 2.9 5.92 3.02L25.12 4.03C24.98 3.9 24.84 3.77 24.69 3.65L6.39 2.68ZM3.98 4.78C3.87 4.89 3.77 5.01 3.67 5.13L27.15 6.36C27.06 6.23 26.97 6.1 26.88 5.98L3.98 4.78ZM3.08 5.85C2.99 5.97 2.9 6.08 2.81 6.2L27.87 7.51C27.8 7.38 27.73 7.26 27.65 7.13L3.08 5.85ZM0.12001 16.8C0.13001 16.93 0.149998 17.05 0.169998 17.17L29.36 18.7C29.39 18.58 29.42 18.46 29.45 18.34L0.12001 16.8ZM4.87001 25.95C5.01001 26.08 5.16 26.21 5.31 26.34L23.28 27.28C23.44 27.17 23.61 27.06 23.76 26.94L4.87001 25.95ZM2.8 23.62C2.89 23.75 2.99 23.87 3.08 24L25.76 25.19C25.87 25.08 25.97 24.96 26.08 24.84L2.8 23.62ZM3.72 24.77C3.83 24.9 3.95001 25.03 4.07001 25.15L24.65 26.23C24.78 26.12 24.91 26 25.04 25.88L3.72 24.77ZM6.36 27.14C6.56 27.28 6.75 27.41 6.95 27.53L21.54 28.3C21.75 28.2 21.96 28.09 22.17 27.97L6.36 27.14ZM0.0100098 14.58C0.0100098 14.7 0 14.83 0 14.95L29.76 16.51C29.77 16.39 29.79 16.27 29.8 16.15L0.0100098 14.58ZM8.43001 28.36C8.74001 28.51 9.05001 28.64 9.37001 28.77L19.02 29.27C19.35 29.18 19.67 29.07 19.99 28.96L8.43001 28.36ZM15.41 29.84L12.88 29.71C13.29 29.77 13.71 29.81 14.14 29.83C14.57 29.84 14.99 29.85 15.41 29.84ZM0.309998 17.93C0.339998 18.05 0.359999 18.18 0.389999 18.3L29.03 19.8C29.07 19.68 29.11 19.56 29.15 19.44L0.309998 17.93ZM0.589996 19.05C0.629996 19.18 0.659997 19.3 0.699997 19.42L28.61 20.88C28.66 20.76 28.71 20.64 28.76 20.53L0.589996 19.05ZM0.0299988 15.69C0.0399988 15.81 0.0400031 15.94 0.0500031 16.06L29.61 17.61C29.63 17.49 29.65 17.37 29.67 17.25L0.0299988 15.69ZM2.05 22.46C2.12 22.59 2.2 22.71 2.28 22.84L26.68 24.12C26.77 24.01 26.86 23.89 26.95 23.77L2.05 22.46ZM1.45 21.32C1.51 21.45 1.57 21.57 1.63 21.7L27.44 23.05C27.52 22.93 27.59 22.82 27.66 22.7L1.45 21.32ZM0.960007 20.18C1.00001 20.31 1.05001 20.43 1.10001 20.56L28.07 21.97C28.13 21.85 28.19 21.73 28.25 21.61L0.960007 20.18Z" fill="#D7E3FF"/>
</svg>
