<svg width="18" height="17" viewBox="0 0 18 17" fill="none" xmlns="http://www.w3.org/2000/svg">
<path d="M16.3408 15.4285V1.56157L18 3.13307V17H2.48885C1.82875 16.9992 1.19594 16.7505 0.729315 16.3082C0.262693 15.866 0.000396219 15.2665 0 14.6413V2.36009C0.000791698 1.735 0.263216 1.13572 0.729752 0.693586C1.19629 0.251453 1.82887 0.00254404 2.48885 0.00141822H3.48319V5.69314L4.79201 4.77832L6.10233 5.69314V0H14.6815V13.857H2.92612C2.60385 13.8091 2.27393 13.8645 1.98869 14.0144C1.88846 14.0881 1.8072 14.1824 1.75102 14.2901C1.69483 14.3979 1.66519 14.5163 1.66433 14.6364C1.66346 14.7566 1.6914 14.8754 1.74602 14.9838C1.80065 15.0923 1.88055 15.1876 1.9797 15.2626C2.14873 15.3793 2.35477 15.4378 2.56373 15.4285H16.3408Z" fill="#1E88E5"/>
</svg>
