<svg width="24" height="25" viewBox="0 0 24 25" fill="none" xmlns="http://www.w3.org/2000/svg">
<path d="M7 11.2728H9V13.2728H7V11.2728ZM7 15.2728H9V17.2728H7V15.2728ZM11 11.2728H13V13.2728H11V11.2728ZM11 15.2728H13V17.2728H11V15.2728ZM15 11.2728H17V13.2728H15V11.2728ZM15 15.2728H17V17.2728H15V15.2728Z" fill="#66789C"/>
<path d="M5 22.2728H19C20.103 22.2728 21 21.3758 21 20.2728V6.2728C21 5.1698 20.103 4.2728 19 4.2728H17V2.2728H15V4.2728H9V2.2728H7V4.2728H5C3.897 4.2728 3 5.1698 3 6.2728V20.2728C3 21.3758 3.897 22.2728 5 22.2728ZM19 8.2728L19.001 20.2728H5V8.2728H19Z" fill="#66789C"/>
</svg>
