<svg width="39" height="39" viewBox="0 0 39 39" fill="none" xmlns="http://www.w3.org/2000/svg">
<circle cx="19.042" cy="19.0439" r="18" stroke="#66789C" stroke-width="2"/>
<path d="M24.749 19.337C24.6562 19.244 24.546 19.1703 24.4247 19.12C24.3034 19.0697 24.1733 19.0438 24.042 19.0438C23.9107 19.0438 23.7806 19.0697 23.6593 19.12C23.538 19.1703 23.4278 19.244 23.335 19.337L21.741 20.931C21.002 20.711 19.623 20.211 18.749 19.337C17.875 18.463 17.375 17.084 17.155 16.345L18.749 14.751C18.8419 14.6582 18.9157 14.548 18.966 14.4267C19.0163 14.3053 19.0422 14.1753 19.0422 14.044C19.0422 13.9126 19.0163 13.7826 18.966 13.6613C18.9157 13.54 18.8419 13.4298 18.749 13.337L14.749 9.33696C14.6562 9.24402 14.546 9.17028 14.4247 9.11997C14.3034 9.06966 14.1733 9.04376 14.042 9.04376C13.9107 9.04376 13.7806 9.06966 13.6593 9.11997C13.538 9.17028 13.4278 9.24402 13.335 9.33696L10.623 12.049C10.243 12.429 10.029 12.951 10.037 13.484C10.06 14.908 10.437 19.854 14.335 23.752C18.233 27.65 23.179 28.026 24.604 28.05H24.632C25.16 28.05 25.659 27.842 26.037 27.464L28.749 24.752C28.8419 24.6592 28.9157 24.549 28.966 24.4277C29.0163 24.3063 29.0422 24.1763 29.0422 24.045C29.0422 23.9136 29.0163 23.7836 28.966 23.6623C28.9157 23.541 28.8419 23.4308 28.749 23.338L24.749 19.337ZM24.622 26.049C23.374 26.028 19.104 25.693 15.749 22.337C12.383 18.971 12.057 14.686 12.037 13.463L14.042 11.458L16.628 14.044L15.335 15.337C15.2175 15.4544 15.131 15.5993 15.0835 15.7585C15.0361 15.9178 15.029 16.0863 15.063 16.249C15.087 16.364 15.674 19.091 17.334 20.751C18.994 22.411 21.721 22.998 21.836 23.022C21.9985 23.0569 22.1673 23.0504 22.3266 23.0031C22.486 22.9557 22.6309 22.869 22.748 22.751L24.042 21.458L26.628 24.044L24.622 26.049Z" fill="#66789C"/>
</svg>
