<svg width="50" height="51" viewBox="0 0 50 51" fill="none" xmlns="http://www.w3.org/2000/svg">
<g clip-path="url(#clip0_206_4646)">
<path d="M24.6875 25.5287C27.9139 25.5287 30.6755 23.4301 32.6223 20.6676C34.57 17.9039 35.7255 14.4445 35.7255 11.6598C35.7255 5.74861 30.7555 0.893945 24.6875 0.893945C18.6195 0.893945 13.6494 5.74851 13.6494 11.6598C13.6494 14.4716 14.8049 17.931 16.7528 20.6882C18.6998 23.4442 21.4615 25.5287 24.6875 25.5287ZM24.6875 2.28275C29.9982 2.28275 34.3367 6.52 34.3367 11.6598C34.3367 14.3991 33.1934 17.5263 31.4054 19.9686C29.6151 22.4142 27.2045 24.1399 24.6875 24.1399C22.1704 24.1399 19.7598 22.4142 17.9695 19.9686C16.1816 17.5262 15.0382 14.399 15.0382 11.6598C15.0382 6.52038 19.3768 2.28275 24.6875 2.28275Z" fill="white" stroke="white" stroke-width="0.3"/>
<path d="M28.1042 50.1899V50.1313C33.7739 49.9609 39.0671 49.3091 43.6656 48.2812C44.712 48.0487 45.4706 47.1183 45.4706 46.0659L45.4702 39.4791C45.5251 32.6419 39.8469 27.0804 32.8546 27.0253V27.0253H32.8534H32.6358H32.5903L32.5525 27.0506L32.3892 27.1595L32.3823 27.1642L32.3759 27.1696C30.3383 28.8852 27.7611 29.7473 24.6873 29.7473C21.6168 29.7473 19.0405 28.887 16.9487 27.173L16.8449 27.0693L16.801 27.0253H16.7389L16.5213 27.0253L16.5201 27.0253C9.52738 27.0802 3.85 32.6423 3.85 39.4788V46.0663C3.85 47.1183 4.6086 48.0488 5.65503 48.2812L5.6711 48.2847H5.67142C10.2661 49.3106 15.6065 49.9609 21.2168 50.1312V50.1899H21.3668H27.9542H28.1042ZM28.0196 30.7861C29.9426 30.3475 31.61 29.592 33.0683 28.4155C39.2263 28.6044 44.1362 33.4853 44.1362 39.4787V46.0662C44.1362 46.4801 43.8642 46.8049 43.4373 46.8995L43.4367 46.8996C38.9142 47.9227 33.6408 48.5193 28.0932 48.6882L27.0168 34.3222L28.0196 30.7861ZM5.99346 46.9542L5.99294 46.954C5.57082 46.8601 5.29392 46.4847 5.29392 46.1207V39.479V39.3298L5.24026 39.3295C5.32165 33.4566 10.2011 28.6032 16.3071 28.4155C17.7666 29.5921 19.4847 30.3471 21.3557 30.7857L22.3588 34.3226L21.3364 48.7428C15.7366 48.5738 10.5163 47.9772 5.99346 46.9542ZM23.6038 33.5581L22.9257 31.136H26.5041L25.826 33.5581H23.6038ZM22.7254 48.8012L23.6844 34.9468H25.6371L26.6496 48.8012H24.6878H22.7254Z" fill="white" stroke="white" stroke-width="0.3"/>
<path d="M35.3016 44.681L35.3284 44.6918H35.3492C35.3553 44.6939 35.3597 44.6957 35.3667 44.6986C35.3722 44.7009 35.3793 44.7039 35.3902 44.7082C35.4323 44.725 35.4934 44.7461 35.5749 44.7461C35.5804 44.7461 35.5861 44.7461 35.5918 44.7461C35.6775 44.7464 35.78 44.7469 35.8727 44.6712L38.5702 43.5923L38.5704 43.5928L38.5817 43.5872C38.7082 43.5238 38.8122 43.44 38.8842 43.3321C38.9568 43.2231 38.9911 43.0983 38.9911 42.9632V38.0637C38.9911 37.8664 38.9247 37.6902 38.7975 37.563C38.6703 37.4357 38.4941 37.3692 38.2965 37.3692H32.8529C32.6556 37.3692 32.4794 37.4356 32.3521 37.5628C32.2249 37.6899 32.1583 37.8662 32.1583 38.0637V42.9632C32.1583 43.2169 32.2859 43.5144 32.5884 43.5958L35.3016 44.681ZM33.5475 38.7579H37.6028V42.4804L35.5754 43.2915L33.5479 42.4803L33.5475 38.7579Z" fill="white" stroke="white" stroke-width="0.3"/>
</g>
<defs>
<clipPath id="clip0_206_4646">
<rect width="50" height="50" fill="white" transform="translate(0 0.0439453)"/>
</clipPath>
</defs>
</svg>
