<svg width="51" height="50" viewBox="0 0 51 50" fill="none" xmlns="http://www.w3.org/2000/svg">
<g clip-path="url(#clip0_223_12225)">
<path d="M47.375 4.1665H3.625C1.95833 4.1665 0.5 5.62484 0.5 7.2915V34.3748C0.5 36.0415 1.95833 37.4998 3.625 37.4998H19.25V43.7498H16.125C15.5 43.7498 15.0833 44.1665 15.0833 44.7915C15.0833 45.4165 15.5 45.8332 16.125 45.8332H34.875C35.5 45.8332 35.9167 45.4165 35.9167 44.7915C35.9167 44.1665 35.5 43.7498 34.875 43.7498H31.75V37.4998H47.375C49.0417 37.4998 50.5 36.0415 50.5 34.3748V7.2915C50.5 5.62484 49.0417 4.1665 47.375 4.1665ZM29.6667 43.7498H21.3333V37.4998H29.6667V43.7498ZM48.4167 34.3748C48.4167 34.9998 48 35.4165 47.375 35.4165H3.625C3 35.4165 2.58333 34.9998 2.58333 34.3748V31.2498H48.4167V34.3748ZM25.5 24.9998C23.2083 24.9998 21.3333 26.8748 21.3333 29.1665H10.9167C11.5417 21.6665 17.7917 15.6248 25.5 15.6248C28 15.6248 30.0833 16.2498 32.1667 17.2915L26.5417 25.2082C26.3333 24.9998 25.9167 24.9998 25.5 24.9998ZM23.4167 29.1665C23.4167 27.9165 24.25 27.0832 25.5 27.0832C26.75 27.0832 27.5833 27.9165 27.5833 29.1665H23.4167ZM28.4167 26.2498L33.8333 18.3332C37.375 20.8332 39.6667 24.7915 39.875 29.1665H29.4583C29.6667 27.9165 29.25 26.8748 28.4167 26.2498ZM42.1667 29.1665C41.5417 20.4165 34.4583 13.5415 25.5 13.5415C16.5417 13.5415 9.45833 20.4165 8.83333 29.1665H6.75C7.375 19.3748 15.5 11.4582 25.5 11.4582C35.5 11.4582 43.625 19.3748 44.25 29.1665H42.1667ZM48.4167 29.1665H46.3333C45.7083 18.1248 36.75 9.37484 25.5 9.37484C14.4583 9.37484 5.29167 18.1248 4.66667 29.1665H2.58333V7.2915C2.58333 6.6665 3 6.24984 3.625 6.24984H47.375C48 6.24984 48.4167 6.6665 48.4167 7.2915V29.1665Z" fill="#66789C"/>
<path d="M11.9582 10.4163H5.70817C5.08317 10.4163 4.6665 9.99967 4.6665 9.37467C4.6665 8.74967 5.08317 8.33301 5.70817 8.33301H11.9582C12.5832 8.33301 12.9998 8.74967 12.9998 9.37467C12.9998 9.99967 12.5832 10.4163 11.9582 10.4163Z" fill="#66789C"/>
<path d="M7.7915 14.5833H5.70817C5.08317 14.5833 4.6665 14.1667 4.6665 13.5417C4.6665 12.9167 5.08317 12.5 5.70817 12.5H7.7915C8.4165 12.5 8.83317 12.9167 8.83317 13.5417C8.83317 14.1667 8.4165 14.5833 7.7915 14.5833Z" fill="#66789C"/>
<path d="M45.2917 10.4163H39.0417C38.4167 10.4163 38 9.99967 38 9.37467C38 8.74967 38.4167 8.33301 39.0417 8.33301H45.2917C45.9167 8.33301 46.3333 8.74967 46.3333 9.37467C46.3333 9.99967 45.9167 10.4163 45.2917 10.4163Z" fill="#66789C"/>
<path d="M45.2915 14.5833H43.2082C42.5832 14.5833 42.1665 14.1667 42.1665 13.5417C42.1665 12.9167 42.5832 12.5 43.2082 12.5H45.2915C45.9165 12.5 46.3332 12.9167 46.3332 13.5417C46.3332 14.1667 45.9165 14.5833 45.2915 14.5833Z" fill="#66789C"/>
</g>
<defs>
<clipPath id="clip0_223_12225">
<rect width="50" height="50" fill="white" transform="translate(0.5)"/>
</clipPath>
</defs>
</svg>
