<svg width="51" height="50" viewBox="0 0 51 50" fill="none" xmlns="http://www.w3.org/2000/svg">
<path d="M41.5781 20.3906H36.9688C36.1058 20.3906 35.4062 21.0902 35.4062 21.9531V40.125C35.4062 40.9879 36.1058 41.6875 36.9688 41.6875H41.5781C42.4411 41.6875 43.1406 40.9879 43.1406 40.125V21.9531C43.1406 21.0902 42.4411 20.3906 41.5781 20.3906Z" fill="white"/>
<path d="M41.5781 43.25H36.9688C36.1399 43.25 35.3451 42.9208 34.759 42.3347C34.173 41.7487 33.8438 40.9538 33.8438 40.125V21.9531C33.8438 21.1243 34.173 20.3295 34.759 19.7434C35.3451 19.1574 36.1399 18.8281 36.9688 18.8281H41.5781C42.4069 18.8281 43.2018 19.1574 43.7878 19.7434C44.3739 20.3295 44.7031 21.1243 44.7031 21.9531V40.125C44.7031 40.9538 44.3739 41.7487 43.7878 42.3347C43.2018 42.9208 42.4069 43.25 41.5781 43.25ZM36.9688 21.9531V40.125H41.5625V21.9531H36.9688Z" fill="#66789C"/>
<path d="M14.1875 31.0469H9.57812C8.71518 31.0469 8.01562 31.7464 8.01562 32.6094V40.1406C8.01562 41.0036 8.71518 41.7031 9.57812 41.7031H14.1875C15.0504 41.7031 15.75 41.0036 15.75 40.1406V32.6094C15.75 31.7464 15.0504 31.0469 14.1875 31.0469Z" fill="white"/>
<path d="M14.2031 43.25H9.51562C8.68682 43.25 7.89197 42.9208 7.30592 42.3347C6.71986 41.7487 6.39063 40.9538 6.39062 40.125V32.6094C6.39062 31.7806 6.71986 30.9857 7.30592 30.3997C7.89197 29.8136 8.68682 29.4844 9.51562 29.4844H14.2031C15.0319 29.4844 15.8268 29.8136 16.4128 30.3997C16.9989 30.9857 17.3281 31.7806 17.3281 32.6094V40.125C17.3281 40.9538 16.9989 41.7487 16.4128 42.3347C15.8268 42.9208 15.0319 43.25 14.2031 43.25ZM9.51562 32.6094V40.125H14.2031V32.6094H9.51562Z" fill="#66789C"/>
<path d="M27.8125 43.25H23.125C22.2962 43.25 21.5013 42.9208 20.9153 42.3347C20.3292 41.7487 20 40.9538 20 40.125V9.875C20 9.0462 20.3292 8.25134 20.9153 7.66529C21.5013 7.07924 22.2962 6.75 23.125 6.75H27.8125C28.6413 6.75 29.4362 7.07924 30.0222 7.66529C30.6083 8.25134 30.9375 9.0462 30.9375 9.875V40.125C30.9375 40.9538 30.6083 41.7487 30.0222 42.3347C29.4362 42.9208 28.6413 43.25 27.8125 43.25ZM23.125 9.875V40.125H27.7344V9.875H23.125Z" fill="#66789C"/>
<path d="M47.2812 43.25H3.71875C3.30435 43.25 2.90692 43.0854 2.6139 42.7924C2.32087 42.4993 2.15625 42.1019 2.15625 41.6875C2.15625 41.2731 2.32087 40.8757 2.6139 40.5826C2.90692 40.2896 3.30435 40.125 3.71875 40.125H47.2812C47.6957 40.125 48.0931 40.2896 48.3861 40.5826C48.6791 40.8757 48.8438 41.2731 48.8438 41.6875C48.8438 42.1019 48.6791 42.4993 48.3861 42.7924C48.0931 43.0854 47.6957 43.25 47.2812 43.25Z" fill="#66789C"/>
</svg>
