<svg width="51" height="50" viewBox="0 0 51 50" fill="none" xmlns="http://www.w3.org/2000/svg">
<g clip-path="url(#clip0_223_12148)">
<path d="M32.9915 7.47462C32.8673 7.09173 32.5957 6.774 32.2373 6.59125C31.8783 6.4083 31.462 6.37572 31.0789 6.50018L24.7291 8.56361C23.932 8.82265 23.4954 9.6789 23.7547 10.4761L24.072 11.4531L7.92018 23.3174L1.54878 25.3875C1.16589 25.512 0.848156 25.7834 0.665411 26.142C0.482665 26.5006 0.449881 26.9173 0.574342 27.3002L4.44559 39.2124C4.65404 39.8538 5.24902 40.2615 5.88873 40.2615C6.04436 40.2615 6.20241 40.2375 6.35824 40.1869L12.7286 38.1168L16.0017 38.134C16.659 41.2376 19.4194 43.5738 22.7157 43.5738C25.9869 43.5738 28.7291 41.2726 29.4133 38.2046L32.7701 38.2222L33.0874 39.1995C33.2117 39.5824 33.4831 39.9001 33.8419 40.0828C34.0572 40.1925 34.2936 40.2482 34.531 40.2482C34.6888 40.2482 34.8473 40.2235 34.9999 40.1739L41.3498 38.1107C42.147 37.8517 42.5835 36.9954 42.3245 36.1982L32.9915 7.47462ZM6.86337 36.8307L3.93054 27.8053L7.64697 26.5977L10.5794 35.6231L6.86337 36.8307ZM22.7155 40.5382C21.1143 40.5382 19.7418 39.5492 19.1713 38.1508L26.2459 38.188C25.6665 39.5672 24.3027 40.5382 22.7155 40.5382ZM13.5964 35.0856L12.0001 30.1725L10.4037 25.2594L25.0596 14.4942L29.5542 28.3264L31.7815 35.1815L13.5964 35.0856ZM35.5052 36.8179L35.3188 36.2446C35.3186 36.2436 35.3184 36.2424 35.318 36.2411L31.308 23.8997L27.1107 10.9814L30.5735 9.85598L38.9681 35.6923L35.5052 36.8179Z" fill="#66789C"/>
<path d="M38.1027 14.853C38.3237 14.9655 38.5588 15.0187 38.7908 15.0187C39.3432 15.0187 39.8761 14.716 40.1443 14.1898L42.8684 8.84506C43.2493 8.09829 42.9524 7.18416 42.2057 6.80349C41.4589 6.42302 40.5448 6.7195 40.1641 7.46647L37.4399 12.8112C37.059 13.5582 37.3559 14.4723 38.1027 14.853Z" fill="#66789C"/>
<path d="M49.5107 29.286L44.1651 26.563C43.4182 26.1828 42.5042 26.4797 42.1238 27.2266C41.7431 27.9736 42.0404 28.8875 42.7872 29.268L48.1327 31.991C48.3535 32.1033 48.5887 32.1565 48.8204 32.1565C49.3729 32.1565 49.9059 31.8535 50.1741 31.3274C50.5547 30.5806 50.2577 29.6667 49.5107 29.286Z" fill="#66789C"/>
<path d="M41.8335 20.481C42.0419 21.1224 42.6369 21.5302 43.2766 21.5302C43.4323 21.5302 43.5903 21.5061 43.7461 21.4555L49.4507 19.6017C50.2477 19.3427 50.6842 18.4864 50.425 17.6891C50.1659 16.8917 49.3097 16.4562 48.5123 16.7146L42.8077 18.5684C42.0108 18.8276 41.5744 19.6839 41.8335 20.481Z" fill="#66789C"/>
</g>
<defs>
<clipPath id="clip0_223_12148">
<rect width="50" height="50" fill="white" transform="translate(0.5)"/>
</clipPath>
</defs>
</svg>
