<svg width="20" height="21" viewBox="0 0 20 21" fill="none" xmlns="http://www.w3.org/2000/svg">
<path d="M9.99984 12.5002C11.8382 12.5002 13.3332 11.0052 13.3332 9.16683C13.3332 7.3285 11.8382 5.8335 9.99984 5.8335C8.1615 5.8335 6.6665 7.3285 6.6665 9.16683C6.6665 11.0052 8.1615 12.5002 9.99984 12.5002ZM9.99984 7.50016C10.919 7.50016 11.6665 8.24766 11.6665 9.16683C11.6665 10.086 10.919 10.8335 9.99984 10.8335C9.08067 10.8335 8.33317 10.086 8.33317 9.16683C8.33317 8.24766 9.08067 7.50016 9.99984 7.50016Z" fill="#66789C"/>
<path d="M9.5169 19.0118C9.65794 19.1125 9.82692 19.1667 10.0002 19.1667C10.1735 19.1667 10.3425 19.1125 10.4836 19.0118C10.7369 18.8326 16.6911 14.5335 16.6669 9.16679C16.6669 5.49096 13.6761 2.50012 10.0002 2.50012C6.3244 2.50012 3.33357 5.49096 3.33357 9.16262C3.3094 14.5335 9.26357 18.8326 9.5169 19.0118ZM10.0002 4.16679C12.7577 4.16679 15.0002 6.40929 15.0002 9.17096C15.0177 12.8693 11.3436 16.1901 10.0002 17.2793C8.65774 16.1893 4.98274 12.8676 5.00024 9.16679C5.00024 6.40929 7.24274 4.16679 10.0002 4.16679Z" fill="#66789C"/>
</svg>
