<svg width="39" height="39" viewBox="0 0 39 39" fill="none" xmlns="http://www.w3.org/2000/svg">
<circle cx="19.042" cy="19.0439" r="18" stroke="#66789C" stroke-width="2"/>
<path d="M19.042 21.0439C21.248 21.0439 23.042 19.2499 23.042 17.0439C23.042 14.8379 21.248 13.0439 19.042 13.0439C16.836 13.0439 15.042 14.8379 15.042 17.0439C15.042 19.2499 16.836 21.0439 19.042 21.0439ZM19.042 15.0439C20.145 15.0439 21.042 15.9409 21.042 17.0439C21.042 18.1469 20.145 19.0439 19.042 19.0439C17.939 19.0439 17.042 18.1469 17.042 17.0439C17.042 15.9409 17.939 15.0439 19.042 15.0439Z" fill="#66789C"/>
<path d="M18.462 28.8579C18.6312 28.9788 18.834 29.0438 19.042 29.0438C19.25 29.0438 19.4527 28.9788 19.622 28.8579C19.926 28.6429 27.071 23.4839 27.042 17.0439C27.042 12.6329 23.453 9.04395 19.042 9.04395C14.631 9.04395 11.042 12.6329 11.042 17.0389C11.013 23.4839 18.158 28.6429 18.462 28.8579ZM19.042 11.0439C22.351 11.0439 25.042 13.7349 25.042 17.0489C25.063 21.4869 20.654 25.4719 19.042 26.7789C17.431 25.4709 13.021 21.4849 13.042 17.0439C13.042 13.7349 15.733 11.0439 19.042 11.0439Z" fill="#66789C"/>
</svg>
