<svg width="25" height="25" viewBox="0 0 25 25" fill="none" xmlns="http://www.w3.org/2000/svg">
<path d="M12.5 14.5C14.706 14.5 16.5 12.706 16.5 10.5C16.5 8.294 14.706 6.5 12.5 6.5C10.294 6.5 8.5 8.294 8.5 10.5C8.5 12.706 10.294 14.5 12.5 14.5ZM12.5 8.5C13.603 8.5 14.5 9.397 14.5 10.5C14.5 11.603 13.603 12.5 12.5 12.5C11.397 12.5 10.5 11.603 10.5 10.5C10.5 9.397 11.397 8.5 12.5 8.5Z" fill="#1E88E5"/>
<path d="M11.92 22.314C12.0892 22.4349 12.292 22.4998 12.5 22.4998C12.7079 22.4998 12.9107 22.4349 13.08 22.314C13.384 22.099 20.529 16.94 20.5 10.5C20.5 6.089 16.911 2.5 12.5 2.5C8.08897 2.5 4.49997 6.089 4.49997 10.495C4.47097 16.94 11.616 22.099 11.92 22.314ZM12.5 4.5C15.809 4.5 18.5 7.191 18.5 10.505C18.521 14.943 14.112 18.928 12.5 20.235C10.889 18.927 6.47897 14.941 6.49997 10.5C6.49997 7.191 9.19097 4.5 12.5 4.5Z" fill="#1E88E5"/>
</svg>
