<svg width="39" height="39" viewBox="0 0 39 39" fill="none" xmlns="http://www.w3.org/2000/svg">
<circle cx="19.042" cy="19.0439" r="18" stroke="#66789C" stroke-width="2"/>
<path d="M27.042 11.0439H11.042C9.93899 11.0439 9.04199 11.9409 9.04199 13.0439V25.0439C9.04199 26.1469 9.93899 27.0439 11.042 27.0439H27.042C28.145 27.0439 29.042 26.1469 29.042 25.0439V13.0439C29.042 11.9409 28.145 11.0439 27.042 11.0439ZM27.042 13.0439V13.5549L19.042 19.7779L11.042 13.5559V13.0439H27.042ZM11.042 25.0439V16.0879L18.428 21.8329C18.6031 21.9705 18.8193 22.0453 19.042 22.0453C19.2647 22.0453 19.4809 21.9705 19.656 21.8329L27.042 16.0879L27.044 25.0439H11.042Z" fill="#66789C"/>
</svg>
