<svg width="13" height="11" viewBox="0 0 13 11" fill="none" xmlns="http://www.w3.org/2000/svg">
<path d="M13 3.11555C12.9999 2.47861 12.8211 1.85921 12.491 1.35196C12.1608 0.844714 11.6974 0.477502 11.1715 0.306415C10.6457 0.135327 10.0863 0.169768 9.57876 0.404478C9.07125 0.639189 8.64355 1.06127 8.36097 1.60624C8.07839 2.15121 7.95648 2.78912 8.01384 3.42254C8.07121 4.05595 8.30471 4.65004 8.67867 5.11407C9.05263 5.5781 9.5465 5.88656 10.0848 5.99233C10.6232 6.0981 11.1764 5.99538 11.66 5.69984C11.4929 6.4232 11.2571 7.02907 10.975 7.51242C10.4107 8.4808 9.67143 8.94916 8.89286 8.94916C8.75078 8.94916 8.61452 9.01501 8.51405 9.13223C8.41359 9.24944 8.35715 9.40842 8.35715 9.57419C8.35715 9.73996 8.41359 9.89894 8.51405 10.0162C8.61452 10.1334 8.75078 10.1992 8.89286 10.1992C10.0864 10.1992 11.1336 9.46335 11.8614 8.21579C12.5829 6.9774 13 5.22981 13 3.11555Z" fill="#1E88E5"/>
<path d="M6 3.11555C5.99989 2.47861 5.78535 1.85921 5.38915 1.35196C4.99295 0.844714 4.43686 0.477502 3.80583 0.306415C3.1748 0.135327 2.50352 0.169768 1.89451 0.404478C1.28551 0.639189 0.772259 1.06127 0.433166 1.60624C0.094072 2.15121 -0.0522274 2.78912 0.0166136 3.42254C0.0854545 4.05595 0.365651 4.65004 0.814406 5.11407C1.26316 5.5781 1.8558 5.88656 2.50181 5.99233C3.14782 6.0981 3.81169 5.99538 4.392 5.69984C4.19143 6.4232 3.90857 7.02907 3.57 7.51242C2.89286 8.4808 2.00572 8.94916 1.07143 8.94916C0.900935 8.94916 0.737422 9.01501 0.616863 9.13223C0.496304 9.24944 0.428575 9.40842 0.428575 9.57419C0.428575 9.73996 0.496304 9.89894 0.616863 10.0162C0.737422 10.1334 0.900935 10.1992 1.07143 10.1992C2.50372 10.1992 3.76029 9.46335 4.63372 8.21579C5.49943 6.9774 6 5.22981 6 3.11555Z" fill="#1E88E5"/>
</svg>
