<svg width="21" height="20" viewBox="0 0 21 20" fill="none" xmlns="http://www.w3.org/2000/svg">
<g clip-path="url(#clip0_162_587)">
<path d="M4.31917 14.4343C3.46083 13.5226 3 12.5001 3 10.8426C3 7.92595 5.0475 5.31179 8.025 4.01929L8.76917 5.16762C5.99 6.67095 5.44667 8.62179 5.23 9.85179C5.6775 9.62012 6.26333 9.53929 6.8375 9.59262C8.34083 9.73179 9.52583 10.966 9.52583 12.5001C9.52583 13.2737 9.21854 14.0155 8.67156 14.5625C8.12458 15.1095 7.38271 15.4168 6.60917 15.4168C5.715 15.4168 4.86 15.0085 4.31917 14.4343ZM12.6525 14.4343C11.7942 13.5226 11.3333 12.5001 11.3333 10.8426C11.3333 7.92595 13.3808 5.31179 16.3583 4.01929L17.1025 5.16762C14.3233 6.67095 13.78 8.62179 13.5633 9.85179C14.0108 9.62012 14.5967 9.53929 15.1708 9.59262C16.6742 9.73179 17.8592 10.966 17.8592 12.5001C17.8592 13.2737 17.5519 14.0155 17.0049 14.5625C16.4579 15.1095 15.716 15.4168 14.9425 15.4168C14.0483 15.4168 13.1933 15.0085 12.6525 14.4343Z" fill="white"/>
</g>
<defs>
<clipPath id="clip0_162_587">
<rect width="20" height="20" fill="white" transform="translate(0.5)"/>
</clipPath>
</defs>
</svg>
