<svg width="25" height="24" viewBox="0 0 25 24" fill="none" xmlns="http://www.w3.org/2000/svg">
<path d="M22.357 8.4852L19.357 3.4852C19.2684 3.33709 19.1428 3.21453 18.9926 3.12951C18.8423 3.0445 18.6726 2.99994 18.5 3.0002H13.914L13.207 2.2932C13.1142 2.20026 13.004 2.12652 12.8827 2.07621C12.7614 2.0259 12.6313 2 12.5 2C12.3687 2 12.2386 2.0259 12.1173 2.07621C11.996 2.12652 11.8858 2.20026 11.793 2.2932L11.086 3.0002H6.5C6.32739 2.99994 6.15767 3.0445 6.00744 3.12951C5.85722 3.21453 5.73164 3.33709 5.643 3.4852L2.643 8.4852C2.55024 8.64093 2.5015 8.81893 2.502 9.0002H2.5V19.0002C2.5 19.2654 2.60536 19.5198 2.79289 19.7073C2.98043 19.8948 3.23478 20.0002 3.5 20.0002H21.5C21.7652 20.0002 22.0196 19.8948 22.2071 19.7073C22.3946 19.5198 22.5 19.2654 22.5 19.0002V9.0002H22.498C22.498 8.8222 22.452 8.6442 22.357 8.4852ZM20.5 18.0002H14.5V14.0002H10.5V18.0002H4.5V10.0002H6.914L7.207 9.7072L9.207 7.7072L12.5 4.4142L16.793 8.7072L17.793 9.7072L18.086 10.0002H20.5V18.0002Z" fill="#1E88E5"/>
<path d="M12.395 12C13.5576 12 14.5 11.0576 14.5 9.89504C14.5 8.73248 13.5576 7.79004 12.395 7.79004C11.2325 7.79004 10.29 8.73248 10.29 9.89504C10.29 11.0576 11.2325 12 12.395 12Z" fill="#7D858F"/>
<path d="M6.5 12H8.5V15H6.5V12ZM16.5 12H18.5V15H16.5V12Z" fill="#7D858F"/>
</svg>
