<svg width="24" height="25" viewBox="0 0 24 25" fill="none" xmlns="http://www.w3.org/2000/svg">
<path d="M21.857 9.38803L18.857 4.38803C18.7684 4.23992 18.6428 4.11736 18.4926 4.03234C18.3423 3.94733 18.1726 3.90277 18 3.90303H13.414L12.707 3.19603C12.6142 3.10309 12.504 3.02935 12.3827 2.97904C12.2614 2.92873 12.1313 2.90283 12 2.90283C11.8687 2.90283 11.7386 2.92873 11.6173 2.97904C11.496 3.02935 11.3858 3.10309 11.293 3.19603L10.586 3.90303H6C5.82739 3.90277 5.65767 3.94733 5.50744 4.03234C5.35722 4.11736 5.23164 4.23992 5.143 4.38803L2.143 9.38803C2.05024 9.54377 2.0015 9.72177 2.002 9.90303H2V19.903C2 20.1682 2.10536 20.4226 2.29289 20.6101C2.48043 20.7977 2.73478 20.903 3 20.903H21C21.2652 20.903 21.5196 20.7977 21.7071 20.6101C21.8946 20.4226 22 20.1682 22 19.903V9.90303H21.998C21.998 9.72503 21.952 9.54703 21.857 9.38803ZM20 18.903H14V14.903H10V18.903H4V10.903H6.414L6.707 10.61L8.707 8.61003L12 5.31703L16.293 9.61003L17.293 10.61L17.586 10.903H20V18.903Z" fill="#7D858F"/>
<path d="M11.895 12.9029C13.0576 12.9029 14 11.9604 14 10.7979C14 9.63531 13.0576 8.69287 11.895 8.69287C10.7324 8.69287 9.79001 9.63531 9.79001 10.7979C9.79001 11.9604 10.7324 12.9029 11.895 12.9029Z" fill="#7D858F"/>
<path d="M6 12.9028H8V15.9028H6V12.9028ZM16 12.9028H18V15.9028H16V12.9028Z" fill="#7D858F"/>
</svg>
