<svg width="25" height="25" viewBox="0 0 25 25" fill="none" xmlns="http://www.w3.org/2000/svg">
<path d="M10.5 18.5C12.275 18.4996 13.9988 17.9054 15.397 16.812L19.793 21.208L21.207 19.794L16.811 15.398C17.905 13.9997 18.4996 12.2754 18.5 10.5C18.5 6.089 14.911 2.5 10.5 2.5C6.089 2.5 2.5 6.089 2.5 10.5C2.5 14.911 6.089 18.5 10.5 18.5ZM10.5 4.5C13.809 4.5 16.5 7.191 16.5 10.5C16.5 13.809 13.809 16.5 10.5 16.5C7.191 16.5 4.5 13.809 4.5 10.5C4.5 7.191 7.191 4.5 10.5 4.5Z" fill="#1E88E5"/>
</svg>
