<svg width="25" height="24" viewBox="0 0 25 24" fill="none" xmlns="http://www.w3.org/2000/svg">
<path d="M11.498 16L16.498 12L11.498 8V11H2.49805V13H11.498V16Z" fill="white"/>
<path d="M13.499 2.99906C12.3165 2.99578 11.1452 3.22717 10.0528 3.67982C8.96035 4.13247 7.96861 4.79739 7.13501 5.63606L8.54901 7.05006C9.87101 5.72806 11.629 4.99906 13.499 4.99906C15.369 4.99906 17.127 5.72806 18.449 7.05006C19.771 8.37206 20.5 10.1301 20.5 12.0001C20.5 13.8701 19.771 15.6281 18.449 16.9501C17.127 18.2721 15.369 19.0011 13.499 19.0011C11.629 19.0011 9.87101 18.2721 8.54901 16.9501L7.13501 18.3641C8.83401 20.0641 11.094 21.0011 13.499 21.0011C15.904 21.0011 18.164 20.0641 19.863 18.3641C21.563 16.6651 22.5 14.4051 22.5 12.0001C22.5 9.59506 21.563 7.33506 19.863 5.63606C19.0294 4.79739 18.0377 4.13247 16.9453 3.67982C15.8529 3.22717 14.6815 2.99578 13.499 2.99906Z" fill="white"/>
</svg>
