<svg width="14" height="14" viewBox="0 0 14 14" fill="none" xmlns="http://www.w3.org/2000/svg">
<path d="M3.34418 8.38233L2.35085 12.6837C2.32009 12.8139 2.32932 12.9504 2.37734 13.0753C2.42536 13.2002 2.50994 13.3078 2.62003 13.3839C2.73011 13.46 2.86059 13.5011 2.99442 13.5019C3.12824 13.5027 3.2592 13.4631 3.37018 13.3883L7.00018 10.9683L10.6302 13.3883C10.7437 13.4637 10.8777 13.5025 11.0139 13.4995C11.1502 13.4966 11.2823 13.4519 11.3924 13.3716C11.5026 13.2913 11.5855 13.1792 11.63 13.0504C11.6746 12.9215 11.6786 12.7822 11.6415 12.651L10.4222 8.38433L13.4462 5.66299C13.543 5.57579 13.6122 5.4621 13.6451 5.336C13.6781 5.2099 13.6733 5.07691 13.6314 4.95349C13.5896 4.83006 13.5125 4.72161 13.4096 4.64154C13.3068 4.56148 13.1828 4.51331 13.0528 4.50299L9.25218 4.20033L7.60751 0.55966C7.55507 0.442431 7.46982 0.342884 7.36205 0.273034C7.25429 0.203184 7.12861 0.166016 7.00018 0.166016C6.87176 0.166016 6.74607 0.203184 6.63831 0.273034C6.53054 0.342884 6.44529 0.442431 6.39285 0.55966L4.74818 4.20033L0.947514 4.50233C0.819817 4.51244 0.697739 4.55913 0.595884 4.63681C0.494028 4.71449 0.416709 4.81987 0.373176 4.94035C0.329643 5.06082 0.321739 5.19128 0.35041 5.31613C0.379082 5.44098 0.443114 5.55492 0.534847 5.64433L3.34418 8.38233V8.38233ZM5.24618 5.49833C5.36518 5.48895 5.47946 5.44774 5.57705 5.379C5.67464 5.31027 5.75194 5.21655 5.80085 5.10766L7.00018 2.45366L8.19951 5.10766C8.24842 5.21655 8.32572 5.31027 8.42331 5.379C8.5209 5.44774 8.63518 5.48895 8.75418 5.49833L11.4022 5.70833L9.22151 7.67099C9.03218 7.84166 8.95685 8.10433 9.02618 8.34966L9.86151 11.273L7.37085 9.61233C7.26153 9.53895 7.13284 9.49977 7.00118 9.49977C6.86952 9.49977 6.74083 9.53895 6.63151 9.61233L4.02885 11.3477L4.72885 8.31699C4.75451 8.20553 4.75107 8.08933 4.71884 7.97958C4.68662 7.86984 4.6267 7.77022 4.54485 7.69033L2.51951 5.71566L5.24618 5.49833V5.49833Z" fill="#1E88E5"/>
</svg>
