<svg width="19" height="20" viewBox="0 0 19 20" fill="none" xmlns="http://www.w3.org/2000/svg">
<path d="M18.4258 9.09451L1.42576 1.09451C1.2546 1.01352 1.06394 0.982855 0.87601 1.00608C0.688081 1.0293 0.510622 1.10545 0.364315 1.22566C0.218008 1.34587 0.108879 1.50519 0.0496467 1.68504C-0.00958555 1.8649 -0.0164815 2.05788 0.0297628 2.24151L1.96876 9.99951L0.0297628 17.7575C-0.0169142 17.9412 -0.0103198 18.1344 0.0487745 18.3145C0.107869 18.4945 0.21702 18.6541 0.363459 18.7744C0.509899 18.8947 0.687572 18.9708 0.875696 18.9939C1.06382 19.0169 1.25461 18.9859 1.42576 18.9045L18.4258 10.9045C18.5976 10.8238 18.7428 10.6958 18.8446 10.5355C18.9463 10.3752 19.0004 10.1893 19.0004 9.99951C19.0004 9.80968 18.9463 9.62377 18.8446 9.46351C18.7428 9.30325 18.5976 9.17526 18.4258 9.09451ZM2.48076 16.1965L3.31976 12.8395L8.99976 9.99951L3.31976 7.15951L2.48076 3.80251L15.6508 9.99951L2.48076 16.1965Z" fill="white"/>
</svg>
