<svg width="53" height="46" viewBox="0 0 53 46" fill="none" xmlns="http://www.w3.org/2000/svg">
<path d="M11.5703 40.6695L9.36719 44.4195C9.19852 44.6976 8.96122 44.9278 8.67803 45.0878C8.39485 45.2479 8.07529 45.3325 7.75 45.3335C7.41331 45.3283 7.08317 45.2397 6.78906 45.0757C6.36366 44.8177 6.05656 44.403 5.93383 43.9208C5.8111 43.4387 5.88255 42.9276 6.13281 42.4976L8.35938 38.7476C8.47657 38.5195 8.63932 38.3179 8.83754 38.1552C9.03576 37.9925 9.26525 37.8722 9.51182 37.8017C9.75838 37.7312 10.0168 37.7121 10.271 37.7455C10.5253 37.7788 10.77 37.864 10.9901 37.9957C11.2101 38.1274 11.4008 38.3028 11.5503 38.5112C11.6998 38.7195 11.8051 38.9563 11.8594 39.2069C11.9138 39.4575 11.9162 39.7166 11.8665 39.9681C11.8168 40.2197 11.716 40.4584 11.5703 40.6695ZM50.875 30.3335H39.6719L32.4766 18.146C32.351 17.9331 32.1845 17.747 31.9867 17.5986C31.7889 17.4503 31.5637 17.3425 31.324 17.2815C31.0844 17.2205 30.8351 17.2075 30.5904 17.2432C30.3458 17.279 30.1106 17.3628 29.8984 17.4898C29.6863 17.6131 29.5007 17.7775 29.3526 17.9732C29.2045 18.1689 29.0968 18.3921 29.0357 18.6298C28.9747 18.8675 28.9615 19.115 28.9969 19.3579C29.0324 19.6007 29.1157 19.8341 29.2422 20.0445L43.6328 44.4195C43.8015 44.6976 44.0388 44.9278 44.322 45.0878C44.6052 45.2479 44.9247 45.3325 45.25 45.3335C45.5867 45.3283 45.9168 45.2397 46.2109 45.0757C46.6363 44.8177 46.9434 44.403 47.0662 43.9208C47.1889 43.4387 47.1175 42.9276 46.8672 42.4976L41.8984 34.0835H50.875C51.3723 34.0835 51.8492 33.886 52.2008 33.5344C52.5525 33.1827 52.75 32.7058 52.75 32.2085C52.75 31.7113 52.5525 31.2343 52.2008 30.8827C51.8492 30.5311 51.3723 30.3335 50.875 30.3335ZM29.8984 30.3335H17.6875L28.0938 12.7085H28.1172L33.7422 3.19291C33.997 2.76401 34.0711 2.25143 33.948 1.76793C33.8249 1.28444 33.5148 0.869642 33.0859 0.614785C32.657 0.359929 32.1445 0.285893 31.661 0.408963C31.1775 0.532034 30.7627 0.84213 30.5078 1.27104L26.5 8.04447L22.4922 1.2476C22.366 1.03523 22.1992 0.849788 22.0014 0.701874C21.8035 0.553959 21.5784 0.446464 21.339 0.385525C21.0996 0.324587 20.8506 0.311399 20.6061 0.346714C20.3616 0.382029 20.1264 0.465155 19.9141 0.591347C19.7017 0.717539 19.5163 0.884326 19.3683 1.08218C19.2204 1.28004 19.1129 1.50509 19.052 1.7445C18.9911 1.9839 18.9779 2.23296 19.0132 2.47745C19.0485 2.72195 19.1316 2.9571 19.2578 3.16947L24.3203 11.7242L13.3281 30.3335H2.125C1.62772 30.3335 1.15081 30.5311 0.799175 30.8827C0.447544 31.2343 0.25 31.7113 0.25 32.2085C0.25 32.7058 0.447544 33.1827 0.799175 33.5344C1.15081 33.886 1.62772 34.0835 2.125 34.0835H29.8984C30.3957 34.0835 30.8726 33.886 31.2243 33.5344C31.5759 33.1827 31.7734 32.7058 31.7734 32.2085C31.7734 31.7113 31.5759 31.2343 31.2243 30.8827C30.8726 30.5311 30.3957 30.3335 29.8984 30.3335Z" fill="#66789C"/>
</svg>
