<svg width="49" height="54" viewBox="0 0 49 54" fill="none" xmlns="http://www.w3.org/2000/svg">
<path d="M48.4061 15.2787C48.3994 14.7133 48.2545 14.1581 47.9842 13.6615H47.9608C47.6662 13.1632 47.2459 12.751 46.742 12.4662L26.117 0.817752C25.6231 0.540587 25.0662 0.39502 24.4998 0.39502C23.9334 0.39502 23.3766 0.540587 22.8826 0.817752L2.25764 12.4193C1.78906 12.6851 1.3943 13.0638 1.1092 13.5209L1.03889 13.6146H1.01545C0.726402 14.1207 0.580564 14.696 0.593574 15.2787V38.3881C0.592808 38.9694 0.746477 39.5404 1.03886 40.0428C1.33125 40.5452 1.75185 40.9609 2.25764 41.2474L22.8826 52.849C23.323 53.0916 23.8108 53.2355 24.3123 53.2709H24.6873C25.1888 53.2355 25.6766 53.0916 26.117 52.849L46.742 41.2474C47.2478 40.9609 47.6684 40.5452 47.9608 40.0428C48.2532 39.5404 48.4068 38.9694 48.4061 38.3881V15.2787ZM24.7108 25.2162L4.88264 14.1771L13.0154 9.58338L23.8201 15.6537C24.026 15.7753 24.2607 15.8395 24.4998 15.8395C24.7389 15.8395 24.9737 15.7753 25.1795 15.6537L35.9842 9.58338L44.1404 14.1771L24.7108 25.2162ZM24.2654 3.25525L24.4998 3.20838L24.7342 3.25525L33.1014 7.96619L24.4998 12.8178L15.8983 7.96619L24.2654 3.25525ZM3.40607 38.3881V28.9896L11.8436 33.724V43.4037L3.64045 38.8099C3.56993 38.7641 3.51171 38.7017 3.47086 38.6281C3.43 38.5546 3.40776 38.4722 3.40607 38.3881ZM14.6561 44.9974V32.9037C14.6515 32.6549 14.5821 32.4116 14.4547 32.1978C14.3272 31.9841 14.1462 31.8073 13.9295 31.6849L3.40607 25.7553V16.5678L23.3045 27.6537L23.117 49.7553L14.6561 44.9974ZM25.9295 49.7318L26.117 27.6537L45.5936 16.5912V25.7553L35.0701 31.6849C34.8534 31.8073 34.6724 31.9841 34.545 32.1978C34.4176 32.4116 34.3481 32.6549 34.3436 32.9037V44.9974L25.9295 49.7318ZM45.3592 38.8099L37.1561 43.4037V33.724L45.5936 28.9896V38.3881C45.5919 38.4722 45.5696 38.5546 45.5288 38.6281C45.4879 38.7017 45.4297 38.7641 45.3592 38.8099Z" fill="#66789C"/>
</svg>
