<svg width="49" height="49" viewBox="0 0 49 49" fill="none" xmlns="http://www.w3.org/2000/svg">
<path d="M48.4063 24.9976V24.8336C48.4084 21.2802 47.6161 17.7713 46.0873 14.5636C44.5585 11.3559 42.3319 8.53066 39.5703 6.29451L39.4531 6.17733L39.3359 6.08357C35.117 2.73477 29.8865 0.916887 24.5 0.927324C20.9193 0.918092 17.3839 1.72779 14.1641 3.29451L13.8828 3.4117C10.6169 5.0404 7.76506 7.39176 5.54367 10.2873C3.32228 13.1828 1.78978 16.5464 1.06251 20.1226V20.1695C0.749532 21.7044 0.592484 23.2671 0.593758 24.8336C0.594662 28.5472 1.46157 32.2095 3.12561 35.5294C4.78965 38.8494 7.20497 41.7355 10.1797 43.9586L10.4141 44.1461H10.4609C14.5361 47.1253 19.4519 48.7338 24.5 48.7398C27.207 48.748 29.895 48.2881 32.4453 47.3805L32.5859 47.3336C37.1794 45.6722 41.1559 42.6474 43.9832 38.6641C46.8105 34.6808 48.3537 29.9289 48.4063 25.0445V24.9976ZM45.5469 23.4976C44.7969 23.4508 44.0234 23.4273 43.25 23.4273C39.6672 23.4231 36.1014 23.9201 32.6563 24.9039C31.7884 22.2735 30.6577 19.7372 29.2813 17.3336L29.1641 17.1695C32.7484 15.0578 35.9758 12.392 38.7266 9.27107C42.7606 12.9481 45.2065 18.0499 45.5469 23.4976ZM36.5234 7.51326C33.9753 10.4064 30.9755 12.8679 27.6406 14.8023C24.9443 10.9183 21.5701 7.55201 17.6797 4.86482C20.8088 3.80087 24.1439 3.48624 27.4168 3.94623C30.6897 4.40622 33.8089 5.628 36.5234 7.51326ZM14.5859 6.2242C18.7353 8.78228 22.3232 12.1549 25.1328 16.1383C20.2519 18.4717 14.91 19.681 9.50001 19.6773C7.71147 19.6737 5.92555 19.5406 4.15626 19.2789C4.91646 16.5084 6.23338 13.9219 8.02659 11.6774C9.8198 9.43285 12.0517 7.57735 14.5859 6.2242ZM3.40626 24.8336C3.40959 23.9009 3.47222 22.9693 3.59376 22.0445C5.54938 22.3335 7.52316 22.4823 9.50001 22.4898C15.4569 22.5018 21.3362 21.1382 26.6797 18.5055L26.8438 18.7633C28.132 20.9833 29.1846 23.3321 29.9844 25.7711C27.8635 26.5288 25.816 27.478 23.8672 28.607C18.6165 31.6153 14.1451 35.8138 10.8125 40.8648C8.49165 38.8876 6.62754 36.4303 5.34886 33.6625C4.07017 30.8948 3.40739 27.8825 3.40626 24.8336ZM13.0625 42.5523C17.3155 36.1065 23.5025 31.1749 30.7344 28.4664C31.4097 31.2438 31.7481 34.0924 31.7422 36.9508C31.7524 39.6401 31.4536 42.3218 30.8516 44.943C27.8935 45.8805 24.7648 46.1523 21.6894 45.739C18.614 45.3257 15.6681 44.2375 13.0625 42.5523ZM33.9922 43.6773C34.3665 41.4547 34.5547 39.2047 34.5547 36.9508C34.5577 33.7996 34.18 30.6597 33.4297 27.5992C36.6261 26.7018 39.93 26.2444 43.25 26.2398C44.0234 26.2398 44.7734 26.2633 45.5469 26.3101C45.2871 29.957 44.0859 33.4741 42.0607 36.5181C40.0355 39.5621 37.2555 42.0288 33.9922 43.6773Z" fill="#66789C"/>
</svg>
