<svg width="25" height="25" viewBox="0 0 25 25" fill="none" xmlns="http://www.w3.org/2000/svg">
<path d="M12.5 2.5C9.85831 2.53369 7.3343 3.59807 5.46618 5.46618C3.59807 7.3343 2.53369 9.85831 2.5 12.5C2.51235 14.0389 2.87972 15.5542 3.57351 16.9279C4.2673 18.3016 5.26879 19.4967 6.5 20.42V20.5H6.6C8.29318 21.7975 10.3668 22.5006 12.5 22.5006C14.6332 22.5006 16.7068 21.7975 18.4 20.5H18.5V20.42C19.7312 19.4967 20.7327 18.3016 21.4265 16.9279C22.1203 15.5542 22.4877 14.0389 22.5 12.5C22.4663 9.85831 21.4019 7.3343 19.5338 5.46618C17.6657 3.59807 15.1417 2.53369 12.5 2.5ZM8.57 19.43C8.71599 18.7614 9.08615 18.1629 9.61908 17.7336C10.152 17.3044 10.8157 17.0702 11.5 17.07H13.5C14.1843 17.0702 14.848 17.3044 15.3809 17.7336C15.9138 18.1629 16.284 18.7614 16.43 19.43C15.2389 20.1308 13.882 20.5004 12.5 20.5004C11.118 20.5004 9.76113 20.1308 8.57 19.43ZM18.11 18.14C17.7296 17.2309 17.0891 16.4546 16.2689 15.9084C15.4487 15.3622 14.4854 15.0705 13.5 15.07H11.5C10.5146 15.0705 9.55127 15.3622 8.73108 15.9084C7.91088 16.4546 7.27037 17.2309 6.89 18.14C6.14066 17.403 5.5439 16.5255 5.13381 15.5578C4.72373 14.5901 4.50835 13.551 4.5 12.5C4.52594 10.3863 5.37712 8.36653 6.87183 6.87183C8.36653 5.37712 10.3863 4.52594 12.5 4.5C14.6137 4.52594 16.6335 5.37712 18.1282 6.87183C19.6229 8.36653 20.4741 10.3863 20.5 12.5C20.4916 13.551 20.2763 14.5901 19.8662 15.5578C19.4561 16.5255 18.8593 17.403 18.11 18.14Z" fill="white"/>
<path d="M12.5 6.49996C11.9713 6.48765 11.4456 6.58269 10.9548 6.77935C10.4639 6.97601 10.018 7.2702 9.64411 7.64411C9.2702 8.01803 8.97601 8.46391 8.77935 8.95478C8.58269 9.44565 8.48765 9.97131 8.49996 10.5C8.48765 11.0286 8.58269 11.5543 8.77935 12.0451C8.97601 12.536 9.2702 12.9819 9.64411 13.3558C10.018 13.7297 10.4639 14.0239 10.9548 14.2206C11.4456 14.4172 11.9713 14.5123 12.5 14.5C13.0286 14.5123 13.5543 14.4172 14.0451 14.2206C14.536 14.0239 14.9819 13.7297 15.3558 13.3558C15.7297 12.9819 16.0239 12.536 16.2206 12.0451C16.4172 11.5543 16.5123 11.0286 16.5 10.5C16.5123 9.97131 16.4172 9.44565 16.2206 8.95478C16.0239 8.46391 15.7297 8.01803 15.3558 7.64411C14.9819 7.2702 14.536 6.97601 14.0451 6.77935C13.5543 6.58269 13.0286 6.48765 12.5 6.49996ZM12.5 12.5C12.2339 12.5128 11.9681 12.4699 11.7196 12.3739C11.4712 12.278 11.2455 12.1311 11.0572 11.9428C10.8688 11.7544 10.7219 11.5288 10.626 11.2803C10.53 11.0318 10.4871 10.766 10.5 10.5C10.4871 10.2339 10.53 9.96811 10.626 9.71964C10.7219 9.47116 10.8688 9.2455 11.0572 9.05716C11.2455 8.86881 11.4712 8.72195 11.7196 8.62599C11.9681 8.53003 12.2339 8.4871 12.5 8.49996C12.766 8.4871 13.0318 8.53003 13.2803 8.62599C13.5288 8.72195 13.7544 8.86881 13.9428 9.05716C14.1311 9.2455 14.278 9.47116 14.3739 9.71964C14.4699 9.96811 14.5128 10.2339 14.5 10.5C14.5128 10.766 14.4699 11.0318 14.3739 11.2803C14.278 11.5288 14.1311 11.7544 13.9428 11.9428C13.7544 12.1311 13.5288 12.278 13.2803 12.3739C13.0318 12.4699 12.766 12.5128 12.5 12.5Z" fill="white"/>
</svg>
