<svg width="15" height="15" viewBox="0 0 15 15" fill="none" xmlns="http://www.w3.org/2000/svg">
<path d="M7.5 0C6.75832 0 6.0333 0.219934 5.41661 0.631989C4.79993 1.04404 4.31928 1.62971 4.03545 2.31494C3.75162 3.00016 3.67736 3.75416 3.82206 4.48159C3.96675 5.20902 4.3239 5.8772 4.84835 6.40165C5.3728 6.9261 6.04098 7.28325 6.76841 7.42795C7.49584 7.57264 8.24984 7.49838 8.93506 7.21455C9.62029 6.93072 10.206 6.45007 10.618 5.83339C11.0301 5.2167 11.25 4.49168 11.25 3.75C11.25 2.75544 10.8549 1.80161 10.1517 1.09835C9.44839 0.395088 8.49456 0 7.5 0ZM7.5 6C7.05499 6 6.61998 5.86804 6.24997 5.62081C5.87996 5.37357 5.59157 5.02217 5.42127 4.61104C5.25097 4.1999 5.20642 3.7475 5.29323 3.31105C5.38005 2.87459 5.59434 2.47368 5.90901 2.15901C6.22368 1.84434 6.62459 1.63005 7.06105 1.54323C7.4975 1.45642 7.9499 1.50097 8.36104 1.67127C8.77217 1.84157 9.12357 2.12996 9.37081 2.49997C9.61804 2.86998 9.75 3.30499 9.75 3.75C9.75 4.34674 9.51295 4.91903 9.09099 5.34099C8.66903 5.76295 8.09674 6 7.5 6ZM14.25 14.25V13.5C14.25 12.1076 13.6969 10.7723 12.7123 9.78769C11.7277 8.80312 10.3924 8.25 9 8.25H6C4.60761 8.25 3.27226 8.80312 2.28769 9.78769C1.30312 10.7723 0.75 12.1076 0.75 13.5V14.25H2.25V13.5C2.25 12.5054 2.64509 11.5516 3.34835 10.8483C4.05161 10.1451 5.00544 9.75 6 9.75H9C9.99456 9.75 10.9484 10.1451 11.6517 10.8483C12.3549 11.5516 12.75 12.5054 12.75 13.5V14.25H14.25Z" fill="#575757"/>
</svg>
