<svg width="59" height="59" viewBox="0 0 59 59" fill="none" xmlns="http://www.w3.org/2000/svg">
<path d="M20.2276 1.52572L22.691 0.814871L24.339 6.55363L21.8756 7.26448L20.2276 1.52572ZM29.1791 5.99884L31.7465 6.08553L31.9721 0.104022L29.4046 0L29.1791 5.99884ZM40.993 2.35792L38.5816 1.47371L36.4999 7.07376L38.8938 7.95797L40.993 2.35792ZM45.1738 11.963L48.8862 7.26448L46.8739 5.66942L43.1614 10.3506L45.1738 11.963ZM49.8577 17.7191L54.8539 14.4249L53.4313 12.2924L48.4352 15.5866L49.8577 17.7191ZM51.8527 22.1749L52.5293 24.6368L58.3061 23.0591L57.6295 20.5798L51.8527 22.1749ZM52.9109 32.04L58.8786 32.3347L59 29.7687L53.015 29.474L52.9109 32.04ZM50.9506 39.2004L56.5366 41.3329L57.456 38.9404L51.87 36.8078L50.9506 39.2004ZM46.8739 45.39L51.5231 49.1696L53.1364 47.1757L48.5046 43.3961L46.8739 45.39ZM41.0623 50.0018L44.3064 55.0297L46.4575 53.6427L43.2135 48.6148L41.0623 50.0018ZM35.6151 58.3758L38.0958 57.717L36.5866 51.9436L34.1059 52.5851L35.6151 58.3758ZM26.3167 58.844L28.8842 59L29.2485 53.0358L26.6983 52.8798L26.3167 58.844ZM17.3478 56.3994L19.7418 57.3356L21.945 51.7876L19.5684 50.834L17.3478 56.3994ZM13.4099 46.6903L9.57601 51.2848L11.5537 52.9318L15.3875 48.3374L13.4099 46.6903ZM8.86475 40.8302L3.79918 44.0029L5.15231 46.1875L10.2179 43.0147L8.86475 40.8302ZM6.36665 33.8431L0.55513 35.2821L1.17965 37.7787L6.99118 36.3397L6.36665 33.8431ZM6.15849 26.4226L0.190827 25.9891L0 28.5378L5.96766 28.9712L6.15849 26.4226ZM8.27493 19.3141L2.74096 17.0429L1.76948 19.4182L7.30344 21.6894L8.27493 19.3141ZM6.29727 11.3042L10.8597 15.1878L12.5251 13.246L7.98 9.36234L6.29727 11.3042ZM13.1323 4.97592L16.2549 10.0905L18.4408 8.75552L15.3355 3.64092L13.1323 4.97592Z" fill="url(#paint0_linear_182_585)"/>
<defs>
<linearGradient id="paint0_linear_182_585" x1="1.136" y1="37.6583" x2="57.8505" y2="21.389" gradientUnits="userSpaceOnUse">
<stop stop-color="#4256D4"/>
<stop offset="1" stop-color="#7E92FF"/>
</linearGradient>
</defs>
</svg>
