<svg width="45" height="47" viewBox="0 0 45 47" fill="none" xmlns="http://www.w3.org/2000/svg">
<path d="M8.93083 28.4587H16.0847C16.4741 28.5562 16.8634 28.7507 17.3988 29.0426C18.8588 29.7725 21.0487 30.9406 25.6234 30.9406H33.7506C35.4051 30.9406 36.8166 29.7725 37.0597 28.2639C37.2056 27.3392 36.9622 26.3659 36.3298 25.6361C36.9137 25.1493 37.303 24.5169 37.4004 23.7381C37.5464 22.8134 37.303 21.8402 36.6706 21.1104C37.2545 20.6236 37.6438 19.9911 37.7412 19.2124C37.8872 18.2877 37.6438 17.3144 37.0114 16.5846C37.5953 16.0978 37.9846 15.4654 38.082 14.6867C38.228 13.7619 37.9846 12.7887 37.3522 12.0589C36.7194 11.329 35.8436 10.8908 34.8703 10.8908H28.0573C28.2518 9.77159 28.4467 8.89543 28.6901 8.0682C28.982 6.85156 29.2739 5.68349 29.4688 3.78553C29.6633 1.59565 28.1547 0.330081 26.6947 0.0870133C25.0887 -0.156385 23.2881 0.622354 22.8013 2.6663C21.6821 7.72737 17.3508 11.1828 16.0854 12.1561C16.0368 12.2047 15.9879 12.2536 15.8908 12.3021L8.93076 12.3018C7.7627 12.3018 6.78938 13.275 6.78938 14.4431V26.4149C6.78938 27.4852 7.76261 28.4589 8.93076 28.4589L8.93083 28.4587ZM17.2039 13.7617C17.2525 13.7617 17.2525 13.7131 17.3014 13.7131C18.7125 12.691 23.5306 8.84656 24.7957 3.104C25.0391 2.03335 25.9638 1.93593 26.4503 1.98477C27.083 2.0822 27.7155 2.56866 27.6183 3.54225C27.4238 5.29422 27.1804 6.41344 26.8885 7.53302C26.6451 8.50625 26.4017 9.47947 26.2072 10.891C26.1097 11.3778 26.2557 11.8643 26.5965 12.2051C26.8885 12.5459 27.3753 12.789 27.8618 12.789H35.0642C35.4536 12.789 35.7941 12.935 36.0374 13.2269C36.2808 13.5188 36.3783 13.9082 36.3294 14.2976C36.232 14.8814 35.5995 15.3682 34.9183 15.3682H33.8476C33.3123 15.3682 32.8744 15.8061 32.8744 16.3414C32.8744 16.8768 33.3123 17.3147 33.8476 17.3147H34.6749C35.0642 17.3147 35.4047 17.4606 35.6481 17.8015C35.8915 18.0934 35.9889 18.4828 35.9401 18.8721C35.8426 19.456 35.2102 19.9427 34.5289 19.9427H33.4583C32.9229 19.9427 32.485 20.3807 32.485 20.916C32.485 21.4513 32.923 21.8892 33.4583 21.8892H34.2855C34.6749 21.8892 35.0154 22.0352 35.2588 22.376C35.5022 22.6679 35.5996 23.0573 35.5507 23.4466C35.4533 24.0305 34.8209 24.5173 34.1396 24.5173H33.0689C32.5336 24.5173 32.0957 24.9552 32.0957 25.4905C32.0957 26.0259 32.5336 26.4638 33.0689 26.4638H33.8962C34.2856 26.4638 34.6261 26.6097 34.8694 26.9506C35.1128 27.2425 35.2103 27.6319 35.1614 28.0212C35.064 28.654 34.4315 29.0918 33.7502 29.0918L25.6231 29.0908C21.4863 29.0908 19.6373 28.1176 18.2746 27.4363C17.9338 27.2418 17.5448 27.0469 17.204 26.9009L17.2039 13.7617ZM8.73599 14.3456C8.73599 14.2481 8.83342 14.151 8.93051 14.151H15.2571V26.5122H8.93051C8.83308 26.5122 8.73599 26.4147 8.73599 26.3176V14.3456Z" fill="white"/>
<path d="M13.5058 23.2514C13.5058 24.0848 12.8306 24.76 11.9972 24.76C11.1642 24.76 10.4887 24.0848 10.4887 23.2514C10.4887 22.4184 11.1642 21.7429 11.9972 21.7429C12.8306 21.7429 13.5058 22.4184 13.5058 23.2514Z" fill="white"/>
<path d="M12.1917 36.7318L9.51496 36.4884L8.49281 34.0066C8.24941 33.3738 7.617 32.9359 6.93533 32.9359C6.25403 32.9359 5.62127 33.3253 5.37785 34.0066L4.35569 36.4884L1.58227 36.7318C0.900963 36.7804 0.317043 37.2672 0.0737145 37.8999C-0.120801 38.5812 0.0737147 39.2625 0.609056 39.7004L2.65302 41.4524L2.02026 44.0802C1.87429 44.7615 2.11769 45.4428 2.70156 45.8322C3.2369 46.2215 4.01562 46.2701 4.59953 45.9296L6.88682 44.5184L9.22269 45.9296C9.51463 46.0756 9.80658 46.173 10.0985 46.173C10.4393 46.173 10.7798 46.0756 11.1207 45.8322C11.656 45.4428 11.9479 44.7129 11.802 44.0802L11.1692 41.4524L13.2132 39.7004C13.7485 39.2625 13.943 38.5324 13.7485 37.8999C13.5054 37.2671 12.9215 36.7803 12.1917 36.7318ZM9.75838 40.0899C9.27158 40.5278 9.07708 41.1605 9.22304 41.7933L9.75838 44.0321L7.763 42.8155C7.47105 42.6695 7.17911 42.5721 6.88718 42.5721C6.59524 42.5721 6.25443 42.6695 6.01137 42.8155L4.01564 44.0318L4.55098 41.793C4.69696 41.1602 4.50244 40.5278 4.01564 40.0895L2.26368 38.581L4.55097 38.3864C5.18373 38.3379 5.71903 37.9485 6.01103 37.3643L6.88684 35.2229L7.76265 37.3643C8.00605 37.9482 8.54138 38.3375 9.22271 38.3864L11.51 38.581L9.75838 40.0899Z" fill="white"/>
<path d="M27.8134 36.7318L25.1367 36.4884L24.1145 34.0066C23.8711 33.3738 23.2387 32.9359 22.5571 32.9359C21.8757 32.9359 21.243 33.3253 20.9996 34.0066L19.9774 36.4884L17.2043 36.7318C16.523 36.7804 15.9391 37.2672 15.6958 37.8999C15.5013 38.5812 15.6958 39.2625 16.2311 39.7004L18.2751 41.4524L17.6423 44.1291C17.4964 44.8104 17.7398 45.4918 18.3236 45.8811C18.859 46.2704 19.6377 46.319 20.2216 45.9785L22.5089 44.5674L24.8448 45.9785C25.1367 46.1245 25.4286 46.2219 25.7206 46.2219C26.0614 46.2219 26.4019 46.1245 26.7427 45.8811C27.2781 45.4917 27.57 44.7619 27.424 44.1291L26.7913 41.5013L28.8352 39.7494C29.3706 39.3115 29.5651 38.5813 29.3706 37.9488C29.079 37.2672 28.4947 36.7804 27.8134 36.7318ZM25.3801 40.0899C24.8933 40.5278 24.6988 41.1605 24.8448 41.7933L25.3801 44.0321L23.3847 42.8155C22.8494 42.4747 22.1681 42.4747 21.5842 42.8155L19.6377 44.0318L20.1731 41.793C20.319 41.1602 20.1245 40.5278 19.6377 40.0895L17.8857 38.581L20.173 38.3864C20.8058 38.3379 21.3411 37.9485 21.6331 37.3643L22.5089 35.2229L23.3847 37.3643C23.6281 37.9482 24.1635 38.3375 24.8448 38.3864L27.1321 38.581L25.3801 40.0899Z" fill="white"/>
<path d="M44.8953 37.8999C44.7008 37.2186 44.1166 36.7807 43.3867 36.7318L40.71 36.4884L39.6879 34.0066C39.4445 33.3738 38.8121 32.9359 38.1304 32.9359C37.4491 32.9359 36.8163 33.3253 36.5729 34.0066L35.5508 36.4884L32.8259 36.7322C32.1446 36.7807 31.5607 37.2675 31.3174 37.9002C31.1229 38.5815 31.3174 39.2629 31.8527 39.7008L33.8967 41.4527L33.2639 44.0805C33.1179 44.7618 33.3613 45.4432 33.9452 45.8325C34.4806 46.2219 35.2593 46.2704 35.8432 45.9299L38.1305 44.5188L40.4663 45.9299C40.7583 46.0759 41.0502 46.1733 41.3422 46.1733C41.683 46.1733 42.0235 46.0759 42.3643 45.8325C42.8997 45.4431 43.1916 44.7133 43.0456 44.0805L42.4129 41.4527L44.4568 39.7008C44.9439 39.2629 45.1385 38.5812 44.8954 37.8999L44.8953 37.8999ZM41.0019 40.0901C40.5151 40.528 40.3206 41.1608 40.4666 41.7936L41.0019 44.032L39.0066 42.8154C38.4712 42.4746 37.7899 42.4746 37.2546 42.8154L35.2592 44.032L35.7945 41.7932C35.9405 41.1605 35.746 40.528 35.2592 40.0898L33.5072 38.5812L35.7945 38.3867C36.4273 38.3382 36.9626 37.9488 37.2546 37.3645L38.1304 35.2232L39.0062 37.3645C39.2496 37.9484 39.7849 38.3378 40.4663 38.3867L42.7536 38.5812L41.0019 40.0901Z" fill="white"/>
</svg>
