<svg width="38" height="40" viewBox="0 0 38 40" fill="none" xmlns="http://www.w3.org/2000/svg">
<path d="M31.6159 3.74085H29.1229V0.928486C29.1229 0.440169 28.7281 0.0439453 28.2413 0.0439453C27.7542 0.0439453 27.3594 0.440169 27.3594 0.928486V3.74085H10.6408V0.928486C10.6408 0.440169 10.2461 0.0439453 9.75923 0.0439453C9.27208 0.0439453 8.87734 0.440169 8.87734 0.928486V3.74085H6.38519C4.69232 3.74263 3.06936 4.4178 1.87215 5.61864C0.675244 6.81946 0.00181395 8.44724 0 10.1453V32.6401C0.0020667 34.3381 0.675214 35.9659 1.87238 37.1665C3.06929 38.367 4.69225 39.0421 6.38512 39.0439H31.6157C33.3084 39.0419 34.9312 38.3667 36.1282 37.1662C37.3248 35.9656 37.9982 34.3378 38 32.6401V10.1453C37.9982 8.44731 37.3251 6.81946 36.1282 5.61895C34.9312 4.41813 33.3086 3.74267 31.6157 3.74093L31.6159 3.74085ZM36.2367 32.64C36.2355 33.869 35.7481 35.047 34.8818 35.9158C34.0156 36.7847 32.8411 37.2736 31.6159 37.2748H6.38527C5.16002 37.2736 3.98556 36.785 3.11902 35.9161C2.25248 35.047 1.76505 33.869 1.76354 32.64V10.1452C1.76502 8.91627 2.25246 7.73796 3.11902 6.86912C3.98526 5.99996 5.16002 5.51107 6.38527 5.50955H8.87742V8.32276C8.87742 8.81107 9.27215 9.20699 9.7593 9.20699C10.2462 9.20699 10.6409 8.81106 10.6409 8.32276V5.50955H27.3595V8.32276C27.3595 8.81107 27.7545 9.20699 28.2414 9.20699C28.7285 9.20699 29.1233 8.81106 29.1233 8.32276V5.50955H31.6159C32.8412 5.51104 34.016 5.99995 34.8822 6.86912C35.7484 7.73796 36.2356 8.91627 36.2368 10.1452L36.2367 32.64Z" fill="white"/>
<path d="M31.6159 3.74085H29.1229V0.928486C29.1229 0.440169 28.7281 0.0439453 28.2413 0.0439453C27.7542 0.0439453 27.3594 0.440169 27.3594 0.928486V3.74085H10.6408V0.928486C10.6408 0.440169 10.2461 0.0439453 9.75923 0.0439453C9.27208 0.0439453 8.87734 0.440169 8.87734 0.928486V3.74085H6.38519C4.69232 3.74263 3.06936 4.4178 1.87215 5.61864C0.675244 6.81946 0.00181395 8.44724 0 10.1453V32.6401C0.0020667 34.3381 0.675214 35.9659 1.87238 37.1665C3.06929 38.367 4.69225 39.0421 6.38512 39.0439H31.6157C33.3084 39.0419 34.9312 38.3667 36.1282 37.1662C37.3248 35.9656 37.9982 34.3378 38 32.6401V10.1453C37.9982 8.44731 37.3251 6.81946 36.1282 5.61895C34.9312 4.41813 33.3086 3.74267 31.6157 3.74093L31.6159 3.74085ZM36.2367 32.64C36.2355 33.869 35.7481 35.047 34.8818 35.9158C34.0156 36.7847 32.8411 37.2736 31.6159 37.2748H6.38527C5.16002 37.2736 3.98556 36.785 3.11902 35.9161C2.25248 35.047 1.76505 33.869 1.76354 32.64V10.1452C1.76502 8.91627 2.25246 7.73796 3.11902 6.86912C3.98526 5.99996 5.16002 5.51107 6.38527 5.50955H8.87742V8.32276C8.87742 8.81107 9.27215 9.20699 9.7593 9.20699C10.2462 9.20699 10.6409 8.81106 10.6409 8.32276V5.50955H27.3595V8.32276C27.3595 8.81107 27.7545 9.20699 28.2414 9.20699C28.7285 9.20699 29.1233 8.81106 29.1233 8.32276V5.50955H31.6159C32.8412 5.51104 34.016 5.99995 34.8822 6.86912C35.7484 7.73796 36.2356 8.91627 36.2368 10.1452L36.2367 32.64Z" stroke="white"/>
<path d="M27.0845 16.9439H10.9155C10.6492 16.9439 10.4032 17.0027 10.2202 17.1026C10.0409 17.2005 9.9 17.3521 9.9 17.5439C9.9 17.7356 10.0409 17.8873 10.2202 17.9853C10.4032 18.0852 10.6492 18.1439 10.9155 18.1439H27.0845C27.3508 18.1439 27.5968 18.0852 27.7798 17.9853C27.9591 17.8873 28.1 17.7356 28.1 17.5439C28.1 17.3521 27.9591 17.2005 27.7798 17.1026C27.5968 17.0027 27.3508 16.9439 27.0845 16.9439Z" fill="white" stroke="white" stroke-width="0.2"/>
<path d="M23.0767 23.9439H14.9233C14.3507 23.9439 13.9 24.444 13.9 25.0439C13.9 25.6435 14.3507 26.1439 14.9233 26.1439H23.0767C23.6493 26.1439 24.1 25.6435 24.1 25.0439C24.1 24.444 23.6493 23.9439 23.0767 23.9439Z" fill="white" stroke="white" stroke-width="0.2"/>
</svg>
