<svg width="37" height="48" viewBox="0 0 37 48" fill="none" xmlns="http://www.w3.org/2000/svg">
<path d="M36.8338 41.6051C36.8338 41.6051 36.8338 41.6051 36.8338 41.6051C37.087 36.9962 34.2006 32.7653 29.8149 31.3155L29.8149 31.3155C22.7259 28.9728 14.9739 28.9728 7.88542 31.3155L7.88539 31.3155C3.50152 32.7652 0.614192 36.9952 0.865226 41.6061C0.865226 41.6061 0.865226 41.6061 0.865227 41.6061L1.119 46.2765L36.684 41.5969L36.8338 41.6051ZM36.8338 41.6051L36.58 46.2752M36.8338 41.6051L36.58 46.2752M36.58 46.2752L36.58 46.2756M36.58 46.2752L36.58 46.2756M36.58 46.2756C36.5611 46.6389 36.2626 46.9218 35.8995 46.9218H1.79955C1.43759 46.9218 1.13827 46.6386 1.119 46.2766L1.11901 46.2767L36.58 46.2756ZM35.4763 41.4296L35.4708 41.5324L35.2546 45.5555H2.44773L2.22844 41.5312C2.22844 41.5312 2.22844 41.5312 2.22844 41.5312C2.01154 37.534 4.51509 33.8664 8.31536 32.6115L8.31538 32.6115C15.1235 30.3625 22.5779 30.3604 29.3868 32.6115L29.3868 32.6115C33.1553 33.857 35.6474 37.4735 35.4763 41.4296Z" fill="white" stroke="white" stroke-width="0.3"/>
<path d="M34.6285 6.52879C34.6588 6.60823 34.6774 6.6963 34.6753 6.78901L34.6763 16.5862C35.7701 16.8865 36.5803 17.8874 36.5803 19.0773C36.5803 20.5058 35.4202 21.6656 33.9931 21.6656C32.5656 21.6656 31.4059 20.5054 31.4059 19.0773C31.4059 17.8875 32.214 16.8865 33.3098 16.5861V7.73004L27.1046 9.85942V13.5076L27.1643 13.618L27.1646 13.6184C30.1132 19.1119 28.0408 25.9793 22.547 28.9279C21.3906 29.5487 20.1208 29.8584 18.8503 29.8584C17.5804 29.8584 16.311 29.5484 15.1546 28.9279L15.1527 28.9269L15.1527 28.9269L14.884 28.7777L14.8822 28.7767C9.52423 25.7077 7.62578 18.8911 10.5971 13.5042V9.86109L3.48664 7.42056C3.4866 7.42055 3.48655 7.42053 3.48651 7.42052L3.48636 7.42047L3.53506 7.27859C3.31947 7.20506 3.17474 7.00126 3.17474 6.77425C3.17474 6.54725 3.31966 6.34236 3.53525 6.2699L34.6285 6.52879ZM34.6285 6.52879V6.51042L34.6157 6.49115V6.43529L34.5723 6.41364C34.4952 6.29034 34.3789 6.19022 34.2291 6.13464L34.2283 6.13437C34.2263 6.13354 34.2242 6.1327 34.2221 6.13189C34.2199 6.13106 34.2173 6.13014 34.2144 6.1292L34.2038 6.12528H34.2005L19.0725 0.931013M34.5193 6.6973C34.5125 6.65385 34.5003 6.61158 34.484 6.57124L34.5918 6.55798H34.6263L34.6263 6.55882L34.626 6.56481C34.6256 6.56903 34.6251 6.57438 34.6239 6.58053C34.6221 6.59073 34.617 6.61304 34.6012 6.63681C34.5852 6.66073 34.558 6.68584 34.5193 6.6973ZM3.48746 6.12772C3.48731 6.12777 3.48715 6.12782 3.48699 6.12788L19.0237 1.07286C18.9116 1.03431 18.7903 1.03431 18.6782 1.07286L18.6295 0.930981L18.6294 0.931014L3.48746 6.12772Z" fill="white" stroke="white" stroke-width="0.3"/>
</svg>
