<svg width="51" height="50" viewBox="0 0 51 50" fill="none" xmlns="http://www.w3.org/2000/svg">
<path d="M5.1875 9.375V32.8125C5.1875 34.5313 6.59375 35.9375 8.3125 35.9375H42.6875C44.4063 35.9375 45.8125 34.5313 45.8125 32.8125V9.375C45.8125 7.65625 44.4063 6.25 42.6875 6.25H8.3125C6.59375 6.25 5.1875 7.65625 5.1875 9.375Z" stroke="#66789C" stroke-width="2.5" stroke-miterlimit="10" stroke-linecap="round" stroke-linejoin="round"/>
<path d="M14.5625 45.3125H36.4375" stroke="#66789C" stroke-width="2.5" stroke-miterlimit="10" stroke-linecap="round" stroke-linejoin="round"/>
<path d="M20.8125 35.9375C20.8125 39.2187 19.7188 43.125 18 45.3125" stroke="#66789C" stroke-width="2.5" stroke-miterlimit="10" stroke-linecap="round" stroke-linejoin="round"/>
<path d="M33 45.3125C31.2812 43.125 30.1875 39.2187 30.1875 35.9375" stroke="#66789C" stroke-width="2.5" stroke-miterlimit="10" stroke-linecap="round" stroke-linejoin="round"/>
<path d="M25.5 23.4375C28.9518 23.4375 31.75 20.6393 31.75 17.1875C31.75 13.7357 28.9518 10.9375 25.5 10.9375C22.0482 10.9375 19.25 13.7357 19.25 17.1875C19.25 20.6393 22.0482 23.4375 25.5 23.4375Z" stroke="#66789C" stroke-width="2.5" stroke-miterlimit="10" stroke-linecap="round" stroke-linejoin="round"/>
<path d="M30.1875 21.875V31.25L25.5 28.125L20.8125 31.25V21.875" stroke="#66789C" stroke-width="2.5" stroke-miterlimit="10" stroke-linecap="round" stroke-linejoin="round"/>
</svg>
