<svg width="51" height="50" viewBox="0 0 51 50" fill="none" xmlns="http://www.w3.org/2000/svg">
<path d="M34.1475 22.573C34.6602 23.0857 35.3486 23.364 36.0762 23.364C36.8037 23.364 37.4922 23.0808 38.0049 22.573L43.6738 16.9382C44.1865 16.4255 44.4697 15.7468 44.4697 15.0193C44.4697 14.2917 44.1865 13.613 43.6738 13.1003L37.6582 7.12378C36.6279 6.10327 34.8311 6.10327 33.8008 7.12378L28.1367 12.7585C27.624 13.2712 27.3408 13.95 27.3408 14.6775C27.3408 15.405 27.624 16.0837 28.1367 16.5964L34.1475 22.573ZM29.7871 14.3992L35.4561 8.7644C35.5537 8.66675 35.6709 8.6521 35.7295 8.6521C35.7881 8.6521 35.9053 8.66675 36.0029 8.7644L42.0186 14.7458C42.1162 14.8435 42.1309 14.9607 42.1309 15.0193C42.1309 15.0779 42.1162 15.1951 42.0186 15.2927L36.3545 20.9275C36.2568 21.0251 36.1397 21.0398 36.0811 21.0398C36.0225 21.0398 35.9053 21.0251 35.8076 20.9275L29.7871 14.9509C29.6895 14.8533 29.6748 14.7361 29.6748 14.6775C29.6748 14.6189 29.6895 14.4968 29.7871 14.3992ZM15.9346 28.7302C14.9043 27.7097 13.1025 27.7097 12.0771 28.7302L11.3301 29.4724C10.583 30.2195 9.79199 31.5427 9.49902 32.5535L7.00391 41.0837C6.79395 41.7966 6.88672 42.4607 7.2627 42.9587C7.60449 43.4128 8.15137 43.6716 8.76172 43.6716C9.00586 43.6716 9.26465 43.6326 9.52344 43.5496L18.4297 40.8103C19.4355 40.5027 20.7588 39.7068 21.501 38.9695L21.9404 38.5349C22.4531 38.0222 22.7363 37.3435 22.7363 36.616C22.7363 35.8884 22.4531 35.2097 21.9404 34.697L15.9346 28.7302ZM20.29 36.8943L19.8506 37.3289C19.3818 37.7976 18.376 38.3982 17.7412 38.5935L12.4141 40.2293L10.3975 37.8123L11.7451 33.2078C11.9307 32.5779 12.5215 31.5818 12.9854 31.1228L13.7324 30.3806C13.8301 30.283 13.9473 30.2683 14.0059 30.2683C14.0645 30.2683 14.1816 30.283 14.2793 30.3806L20.2852 36.3523C20.3828 36.45 20.3975 36.5671 20.3975 36.6257C20.4023 36.6843 20.3877 36.8015 20.29 36.8943ZM16.3203 7.12378C15.29 6.10327 13.4932 6.10327 12.4629 7.12378L6.45215 13.1003C5.93945 13.613 5.65625 14.2917 5.65625 15.0193C5.65625 15.7468 5.93945 16.4255 6.45215 16.9382L33.8057 44.1355C34.3184 44.6482 35.0068 44.9265 35.7344 44.9265C36.4619 44.9265 37.1504 44.6433 37.6631 44.1355L43.6787 38.1541C44.1914 37.6414 44.4746 36.9626 44.4746 36.2351C44.4746 35.5076 44.1914 34.8289 43.6787 34.3162L16.3203 7.12378ZM42.0186 36.5085L36.0078 42.49C35.9102 42.5876 35.793 42.6023 35.7344 42.6023C35.6758 42.6023 35.5586 42.5876 35.4609 42.49L8.10742 15.2927C8.00977 15.1951 7.99512 15.0779 7.99512 15.0193C7.99512 14.9607 8.00977 14.8435 8.10742 14.7458L14.1182 8.7644C14.2158 8.66675 14.333 8.6521 14.3916 8.6521C14.4502 8.6521 14.5674 8.66675 14.665 8.7644L15.4805 9.57495L12.6924 12.3533C12.2334 12.8074 12.2334 13.5447 12.6924 13.9988C12.9219 14.2234 13.2197 14.3406 13.5176 14.3406C13.8154 14.3406 14.1182 14.2283 14.3428 13.9988L17.1357 11.2205L18.4932 12.573L17.2871 13.7742C16.833 14.2283 16.833 14.9656 17.2871 15.4197C17.5166 15.6443 17.8145 15.7615 18.1123 15.7615C18.4102 15.7615 18.7129 15.6492 18.9375 15.4197L20.1436 14.2185L21.501 15.571L18.708 18.3494C18.249 18.8035 18.249 19.5408 18.708 19.9949C18.9375 20.2195 19.2354 20.3367 19.5332 20.3367C19.8311 20.3367 20.1289 20.2244 20.3584 19.9949L23.1514 17.2166L24.5137 18.5691L23.3076 19.7703C22.8535 20.2244 22.8535 20.9617 23.3076 21.4158C23.5371 21.6453 23.835 21.7576 24.1328 21.7576C24.4307 21.7576 24.7334 21.6453 24.958 21.4158L26.1641 20.2146L27.5264 21.5671L24.7334 24.3455C24.2793 24.7996 24.2793 25.5369 24.7334 25.991C24.9629 26.2156 25.2607 26.3328 25.5586 26.3328C25.8564 26.3328 26.1592 26.2205 26.3838 25.991L29.1768 23.2126L30.5391 24.5652L29.333 25.7664C28.8789 26.2205 28.8789 26.9578 29.333 27.4119C29.5625 27.6414 29.8604 27.7537 30.1582 27.7537C30.4561 27.7537 30.7588 27.6414 30.9834 27.4119L32.1895 26.2107L33.5469 27.5632L30.7539 30.3416C30.2949 30.7957 30.2949 31.533 30.7539 31.9871C30.9834 32.2166 31.2813 32.3289 31.5791 32.3289C31.877 32.3289 32.1748 32.2166 32.4043 31.9871L35.1973 29.2087L36.5547 30.5613L35.3486 31.7625C34.8945 32.2166 34.8945 32.9539 35.3486 33.408C35.5781 33.6326 35.876 33.7498 36.1738 33.7498C36.4717 33.7498 36.7744 33.6375 36.999 33.408L38.2051 32.2068L39.5674 33.5593L36.7744 36.3376C36.3154 36.7917 36.3154 37.5291 36.7744 37.9832C37.0039 38.2078 37.3018 38.325 37.5996 38.325C37.8975 38.325 38.2002 38.2126 38.4248 37.9832L41.2178 35.2048L41.9941 35.9812C42.0918 36.0789 42.1064 36.196 42.1064 36.2546C42.1064 36.3132 42.1162 36.4109 42.0186 36.5085Z" fill="#66789C"/>
</svg>
