<svg width="25" height="25" viewBox="0 0 25 25" fill="none" xmlns="http://www.w3.org/2000/svg">
<path d="M12.5 14.5C14.706 14.5 16.5 12.706 16.5 10.5C16.5 8.294 14.706 6.5 12.5 6.5C10.294 6.5 8.5 8.294 8.5 10.5C8.5 12.706 10.294 14.5 12.5 14.5ZM12.5 8.5C13.603 8.5 14.5 9.397 14.5 10.5C14.5 11.603 13.603 12.5 12.5 12.5C11.397 12.5 10.5 11.603 10.5 10.5C10.5 9.397 11.397 8.5 12.5 8.5Z" fill="#05264E"/>
<path d="M11.9201 22.314C12.0893 22.4349 12.2921 22.4998 12.5001 22.4998C12.7081 22.4998 12.9108 22.4349 13.0801 22.314C13.3841 22.099 20.5291 16.94 20.5001 10.5C20.5001 6.089 16.9111 2.5 12.5001 2.5C8.08909 2.5 4.50009 6.089 4.50009 10.495C4.47109 16.94 11.6161 22.099 11.9201 22.314ZM12.5001 4.5C15.8091 4.5 18.5001 7.191 18.5001 10.505C18.5211 14.943 14.1121 18.928 12.5001 20.235C10.8891 18.927 6.47909 14.941 6.50009 10.5C6.50009 7.191 9.19109 4.5 12.5001 4.5Z" fill="#05264E"/>
</svg>
