<svg width="24" height="24" viewBox="0 0 24 24" fill="none" xmlns="http://www.w3.org/2000/svg">
<path d="M12 1.99951C6.486 1.99951 2 6.48551 2 11.9995C2 17.5135 6.486 21.9995 12 21.9995C17.514 21.9995 22 17.5135 22 11.9995C22 6.48551 17.514 1.99951 12 1.99951ZM12 19.9995C7.589 19.9995 4 16.4105 4 11.9995C4 7.58851 7.589 3.99951 12 3.99951C16.411 3.99951 20 7.58851 20 11.9995C20 16.4105 16.411 19.9995 12 19.9995Z" fill="#66789C"/>
<path d="M13 6.99951H11V12.9995H17V10.9995H13V6.99951Z" fill="#66789C"/>
</svg>
