<svg width="49" height="50" viewBox="0 0 49 50" fill="none" xmlns="http://www.w3.org/2000/svg">
<path d="M24.5002 28.5835C23.2023 28.5835 21.9335 28.1986 20.8543 27.4775C19.7751 26.7564 18.934 25.7315 18.4373 24.5324C17.9406 23.3332 17.8106 22.0137 18.0638 20.7407C18.317 19.4677 18.9421 18.2984 19.8598 17.3806C20.7776 16.4628 21.947 15.8378 23.22 15.5846C24.493 15.3314 25.8125 15.4613 27.0116 15.958C28.2107 16.4547 29.2357 17.2959 29.9568 18.3751C30.6778 19.4543 31.0627 20.7231 31.0627 22.021C31.0566 23.7596 30.3632 25.4252 29.1338 26.6546C27.9044 27.8839 26.2388 28.5773 24.5002 28.5835ZM27.4299 28.5835H21.5705C20.8798 28.5836 20.1976 28.7372 19.5734 29.033C18.9492 29.3289 18.3985 29.7598 17.9612 30.2944C17.5134 30.8262 17.1922 31.4526 17.0216 32.1266C16.8511 32.8005 16.8358 33.5043 16.9768 34.1851L19.2268 45.4351C19.4423 46.4962 20.0166 47.4506 20.8533 48.1379C21.69 48.8251 22.7378 49.2032 23.8205 49.2085H25.1799C26.2626 49.2032 27.3105 48.8251 28.1472 48.1379C28.9838 47.4506 29.5582 46.4962 29.7737 45.4351L32.0237 34.1851C32.1647 33.5043 32.1493 32.8005 31.9788 32.1266C31.8083 31.4526 31.4871 30.8262 31.0393 30.2944C30.6019 29.7598 30.0512 29.3289 29.427 29.033C28.8028 28.7372 28.1207 28.5836 27.4299 28.5835ZM36.7346 29.5913C36.5754 30.0497 36.6002 30.552 36.8036 30.9926C37.0071 31.4331 37.3735 31.7777 37.8257 31.9537C38.2779 32.1297 38.7808 32.1236 39.2286 31.9365C39.6763 31.7495 40.0342 31.3961 40.2268 30.9507C40.9926 29.0025 41.3822 26.9268 41.3752 24.8335C41.3752 20.358 39.5973 16.0658 36.4327 12.9011C33.268 9.7364 28.9758 7.95851 24.5002 7.95851C20.0247 7.95851 15.7325 9.7364 12.5678 12.9011C9.40313 16.0658 7.62523 20.358 7.62523 24.8335C7.61594 26.927 8.00571 29.0031 8.77367 30.9507C8.9098 31.3007 9.14791 31.6018 9.45714 31.8149C9.76638 32.028 10.1325 32.1434 10.508 32.146C10.7419 32.1467 10.9734 32.0988 11.1877 32.0054C11.6499 31.827 12.0227 31.473 12.2247 31.0207C12.4267 30.5684 12.4415 30.0545 12.2659 29.5913C11.4932 27.6023 11.2172 25.455 11.4616 23.3352C11.7061 21.2155 12.4637 19.1873 13.6688 17.4264C14.8738 15.6655 16.4901 14.2249 18.3775 13.2295C20.2648 12.2341 22.3664 11.7139 24.5002 11.7139C26.634 11.7139 28.7356 12.2341 30.623 13.2295C32.5104 14.2249 34.1266 15.6655 35.3317 17.4264C36.5368 19.1873 37.2944 21.2155 37.5388 23.3352C37.7833 25.455 37.5072 27.6023 36.7346 29.5913ZM24.5002 0.458508C19.2239 0.453385 14.0884 2.16047 9.86514 5.32333C5.64188 8.48618 2.55894 12.934 1.07944 17.9987C-0.400061 23.0633 -0.196228 28.4713 1.66032 33.4102C3.51686 38.3491 6.92587 42.5522 11.3752 45.3882C11.7948 45.6586 12.3046 45.7512 12.7925 45.6457C13.2804 45.5403 13.7064 45.2453 13.9768 44.8257C14.2472 44.4061 14.3398 43.8963 14.2343 43.4084C14.1289 42.9205 13.8339 42.4945 13.4143 42.2241C9.65094 39.8254 6.76717 36.2706 5.19588 32.0935C3.62458 27.9165 3.45055 23.3424 4.69989 19.058C5.94923 14.7736 8.55455 11.01 12.1247 8.33218C15.6949 5.65437 20.0374 4.20682 24.5002 4.20682C28.9631 4.20682 33.3055 5.65437 36.8757 8.33218C40.4459 11.01 43.0512 14.7736 44.3006 19.058C45.5499 23.3424 45.3759 27.9165 43.8046 32.0935C42.2333 36.2706 39.3495 39.8254 35.5862 42.2241C35.2473 42.4452 34.9891 42.77 34.85 43.1499C34.7109 43.5298 34.6984 43.9445 34.8145 44.3321C34.9305 44.7197 35.1687 45.0594 35.4937 45.3004C35.8186 45.5414 36.2128 45.6709 36.6174 45.6694C36.972 45.6639 37.3191 45.567 37.6252 45.3882C42.0746 42.5522 45.4836 38.3491 47.3402 33.4102C49.1967 28.4713 49.4005 23.0633 47.921 17.9987C46.4415 12.934 43.3586 8.48618 39.1353 5.32333C34.9121 2.16047 29.7766 0.453385 24.5002 0.458508Z" fill="#66789C"/>
</svg>
