<svg width="49" height="52" viewBox="0 0 49 52" fill="none" xmlns="http://www.w3.org/2000/svg">
<path d="M47.7266 9.97403L25.2266 0.599029C24.7605 0.411326 24.2397 0.411326 23.7735 0.599029L1.27352 9.97403C0.894881 10.1386 0.580214 10.4221 0.377204 10.7816C0.174195 11.1411 0.0939107 11.557 0.148518 11.9662L3.89852 40.0912C3.93956 40.3929 4.05255 40.6802 4.22795 40.9291C4.40335 41.1779 4.63602 41.3809 4.90633 41.5209L23.6563 50.8959C23.9205 51.0194 24.2085 51.0834 24.5001 51.0834C24.7917 51.0834 25.0797 51.0194 25.3438 50.8959L44.0938 41.5209C44.3641 41.3809 44.5968 41.1779 44.7722 40.9291C44.9476 40.6802 45.0606 40.3929 45.1016 40.0912L48.8516 11.9662C48.9062 11.557 48.826 11.1411 48.623 10.7816C48.4199 10.4221 48.1053 10.1386 47.7266 9.97403ZM41.5157 38.5912L24.5001 47.1225L7.48446 38.5912L4.03914 12.8803L24.5001 4.37247L44.961 12.8803L41.5157 38.5912ZM22.8126 14.6147L14.3751 31.4897C14.1513 31.9372 14.1145 32.4553 14.2727 32.93C14.4309 33.4047 14.7713 33.7971 15.2188 34.0209C15.6664 34.2447 16.1845 34.2815 16.6592 34.1233C17.1339 33.965 17.5263 33.6247 17.7501 33.1772L19.7188 29.2162H29.2813L31.2501 33.1772C31.4094 33.4875 31.6513 33.7479 31.9489 33.9299C32.2466 34.1118 32.5887 34.2082 32.9376 34.2084C33.2285 34.2022 33.5152 34.1385 33.7813 34.0209C34.2223 33.7903 34.5567 33.3977 34.714 32.9256C34.8714 32.4535 34.8395 31.9387 34.6251 31.4897L26.1876 14.6147C26.0279 14.3048 25.7859 14.0449 25.4882 13.8634C25.1906 13.6819 24.8487 13.5859 24.5001 13.5859C24.1515 13.5859 23.8096 13.6819 23.5119 13.8634C23.2142 14.0449 22.9723 14.3048 22.8126 14.6147ZM27.4063 25.4662H21.5938L24.5001 19.6537L27.4063 25.4662Z" fill="#66789C"/>
</svg>
