<svg width="18" height="19" viewBox="0 0 18 19" fill="none" xmlns="http://www.w3.org/2000/svg">
<path d="M9 2C8.25832 2 7.5333 2.21993 6.91661 2.63199C6.29993 3.04404 5.81928 3.62971 5.53545 4.31494C5.25162 5.00016 5.17736 5.75416 5.32206 6.48159C5.46675 7.20902 5.8239 7.8772 6.34835 8.40165C6.8728 8.9261 7.54098 9.28325 8.26841 9.42795C8.99584 9.57264 9.74984 9.49838 10.4351 9.21455C11.1203 8.93072 11.706 8.45007 12.118 7.83339C12.5301 7.2167 12.75 6.49168 12.75 5.75C12.75 4.75544 12.3549 3.80161 11.6517 3.09835C10.9484 2.39509 9.99456 2 9 2ZM9 8C8.55499 8 8.11998 7.86804 7.74997 7.62081C7.37996 7.37357 7.09157 7.02217 6.92127 6.61104C6.75097 6.1999 6.70642 5.7475 6.79323 5.31105C6.88005 4.87459 7.09434 4.47368 7.40901 4.15901C7.72368 3.84434 8.12459 3.63005 8.56105 3.54323C8.9975 3.45642 9.4499 3.50097 9.86104 3.67127C10.2722 3.84157 10.6236 4.12996 10.8708 4.49997C11.118 4.86998 11.25 5.30499 11.25 5.75C11.25 6.34674 11.0129 6.91903 10.591 7.34099C10.169 7.76295 9.59674 8 9 8ZM15.75 16.25V15.5C15.75 14.1076 15.1969 12.7723 14.2123 11.7877C13.2277 10.8031 11.8924 10.25 10.5 10.25H7.5C6.10761 10.25 4.77226 10.8031 3.78769 11.7877C2.80312 12.7723 2.25 14.1076 2.25 15.5V16.25H3.75V15.5C3.75 14.5054 4.14509 13.5516 4.84835 12.8483C5.55161 12.1451 6.50544 11.75 7.5 11.75H10.5C11.4946 11.75 12.4484 12.1451 13.1517 12.8483C13.8549 13.5516 14.25 14.5054 14.25 15.5V16.25H15.75Z" fill="#66789C"/>
</svg>
