<svg width="24" height="25" viewBox="0 0 24 25" fill="none" xmlns="http://www.w3.org/2000/svg">
<path d="M12 2.70593C9.35831 2.73962 6.8343 3.80401 4.96618 5.67212C3.09807 7.54023 2.03369 10.0642 2 12.7059C2.01235 14.2448 2.37972 15.7601 3.07351 17.1339C3.7673 18.5076 4.76879 19.7026 6 20.6259V20.7059H6.1C7.79318 22.0034 9.86685 22.7066 12 22.7066C14.1332 22.7066 16.2068 22.0034 17.9 20.7059H18V20.6259C19.2312 19.7026 20.2327 18.5076 20.9265 17.1339C21.6203 15.7601 21.9877 14.2448 22 12.7059C21.9663 10.0642 20.9019 7.54023 19.0338 5.67212C17.1657 3.80401 14.6417 2.73962 12 2.70593ZM8.07 19.6359C8.21599 18.9674 8.58615 18.3688 9.11908 17.9396C9.65202 17.5103 10.3157 17.2761 11 17.2759H13C13.6843 17.2761 14.348 17.5103 14.8809 17.9396C15.4138 18.3688 15.784 18.9674 15.93 19.6359C14.7389 20.3367 13.382 20.7063 12 20.7063C10.618 20.7063 9.26113 20.3367 8.07 19.6359ZM17.61 18.3459C17.2296 17.4369 16.5891 16.6605 15.7689 16.1143C14.9487 15.5681 13.9854 15.2764 13 15.2759H11C10.0146 15.2764 9.05127 15.5681 8.23108 16.1143C7.41088 16.6605 6.77037 17.4369 6.39 18.3459C5.64066 17.6089 5.0439 16.7315 4.63381 15.7637C4.22373 14.796 4.00835 13.7569 4 12.7059C4.02594 10.5923 4.87712 8.57246 6.37183 7.07776C7.86653 5.58305 9.88633 4.73187 12 4.70593C14.1137 4.73187 16.1335 5.58305 17.6282 7.07776C19.1229 8.57246 19.9741 10.5923 20 12.7059C19.9916 13.7569 19.7763 14.796 19.3662 15.7637C18.9561 16.7315 18.3593 17.6089 17.61 18.3459Z" fill="#66789C"/>
<path d="M12 6.70589C11.4713 6.69358 10.9456 6.78863 10.4548 6.98529C9.96391 7.18194 9.51803 7.47613 9.14411 7.85005C8.7702 8.22396 8.47601 8.66984 8.27935 9.16071C8.08269 9.65158 7.98765 10.1772 7.99996 10.7059C7.98765 11.2345 8.08269 11.7602 8.27935 12.2511C8.47601 12.7419 8.7702 13.1878 9.14411 13.5617C9.51803 13.9357 9.96391 14.2298 10.4548 14.4265C10.9456 14.6232 11.4713 14.7182 12 14.7059C12.5286 14.7182 13.0543 14.6232 13.5451 14.4265C14.036 14.2298 14.4819 13.9357 14.8558 13.5617C15.2297 13.1878 15.5239 12.7419 15.7206 12.2511C15.9172 11.7602 16.0123 11.2345 16 10.7059C16.0123 10.1772 15.9172 9.65158 15.7206 9.16071C15.5239 8.66984 15.2297 8.22396 14.8558 7.85005C14.4819 7.47613 14.036 7.18194 13.5451 6.98529C13.0543 6.78863 12.5286 6.69358 12 6.70589ZM12 12.7059C11.7339 12.7188 11.4681 12.6758 11.2196 12.5799C10.9712 12.4839 10.7455 12.337 10.5572 12.1487C10.3688 11.9604 10.2219 11.7347 10.126 11.4862C10.03 11.2377 9.9871 10.9719 9.99996 10.7059C9.9871 10.4398 10.03 10.174 10.126 9.92557C10.2219 9.6771 10.3688 9.45144 10.5572 9.26309C10.7455 9.07475 10.9712 8.92788 11.2196 8.83192C11.4681 8.73596 11.7339 8.69303 12 8.70589C12.266 8.69303 12.5318 8.73596 12.7803 8.83192C13.0288 8.92788 13.2544 9.07475 13.4428 9.26309C13.6311 9.45144 13.778 9.6771 13.8739 9.92557C13.9699 10.174 14.0128 10.4398 14 10.7059C14.0128 10.9719 13.9699 11.2377 13.8739 11.4862C13.778 11.7347 13.6311 11.9604 13.4428 12.1487C13.2544 12.337 13.0288 12.4839 12.7803 12.5799C12.5318 12.6758 12.266 12.7188 12 12.7059Z" fill="#66789C"/>
</svg>
