<svg width="12" height="13" viewBox="0 0 12 13" fill="none" xmlns="http://www.w3.org/2000/svg">
<path d="M6 0.166992C5.34073 0.166992 4.69626 0.362489 4.1481 0.72876C3.59994 1.09503 3.17269 1.61563 2.9204 2.22471C2.66811 2.8338 2.6021 3.50402 2.73072 4.15063C2.85933 4.79723 3.1768 5.39117 3.64298 5.85735C4.10915 6.32352 4.7031 6.64099 5.3497 6.76961C5.9963 6.89823 6.66652 6.83222 7.27561 6.57992C7.8847 6.32763 8.40529 5.90039 8.77157 5.35223C9.13784 4.80406 9.33333 4.1596 9.33333 3.50033C9.33333 2.61627 8.98214 1.76842 8.35702 1.1433C7.7319 0.518182 6.88406 0.166992 6 0.166992V0.166992ZM6 5.50033C5.60444 5.50033 5.21776 5.38303 4.88886 5.16326C4.55996 4.9435 4.30362 4.63114 4.15224 4.26569C4.00087 3.90024 3.96126 3.49811 4.03843 3.11015C4.1156 2.72218 4.30608 2.36582 4.58579 2.08611C4.86549 1.80641 5.22186 1.61593 5.60982 1.53876C5.99778 1.46158 6.39991 1.50119 6.76537 1.65257C7.13082 1.80394 7.44318 2.06029 7.66294 2.38919C7.8827 2.71808 8 3.10476 8 3.50033C8 4.03076 7.78929 4.53947 7.41421 4.91454C7.03914 5.28961 6.53043 5.50033 6 5.50033V5.50033ZM12 12.8337V12.167C12 10.9293 11.5083 9.74233 10.6332 8.86716C9.758 7.99199 8.57101 7.50033 7.33333 7.50033H4.66667C3.42899 7.50033 2.242 7.99199 1.36683 8.86716C0.491665 9.74233 0 10.9293 0 12.167V12.8337H1.33333V12.167C1.33333 11.2829 1.68452 10.4351 2.30964 9.80997C2.93477 9.18485 3.78261 8.83366 4.66667 8.83366H7.33333C8.21739 8.83366 9.06523 9.18485 9.69036 9.80997C10.3155 10.4351 10.6667 11.2829 10.6667 12.167V12.8337H12Z" fill="#1E88E5"/>
</svg>
